<svg width="40" height="40" viewBox="0 0 40 40" fill="none" xmlns="http://www.w3.org/2000/svg">
<path d="M16.3656 32.1322H23.3511L28.9304 26.5529C30.324 25.1593 32.3794 25.2437 33.8777 26.7419C33.8777 26.7419 31.1638 33.3838 27.5001 35.5C26.0854 36.3172 25.0001 36.9994 23.5945 36.9994C22.189 36.9994 6.12256 36.9996 6.12256 36.9996" stroke="#333333" stroke-width="1.3" stroke-miterlimit="22.9256" stroke-linecap="round" stroke-linejoin="round"/>
<path d="M20.8699 32.1324C21.8687 32.1324 22.686 31.3151 22.686 30.3163C22.686 29.3175 21.8687 28.5002 20.8699 28.5002H16.3657C14.0582 27.1156 10.927 26.783 8.41097 29.7351H6.12256M20.0001 15.7236V20.9972" stroke="#333333" stroke-width="1.3" stroke-miterlimit="22.9256" stroke-linecap="round" stroke-linejoin="round"/>
<path d="M12.2031 27.3885C13.165 23.8754 16.3575 21.4395 19.9999 21.4395C23.6803 21.4395 26.8963 23.9256 27.8231 27.4875" stroke="#333333" stroke-width="1.3" stroke-miterlimit="22.9256" stroke-linecap="round" stroke-linejoin="round"/>
<path fill-rule="evenodd" clip-rule="evenodd" d="M9.32227 3.12496C13.024 7.58229 10.3925 15.4361 20.7259 15.4361C22.4109 5.50482 14.3514 2.29564 9.32227 3.12496Z" stroke="#333333" stroke-width="1.3" stroke-miterlimit="22.9256" stroke-linecap="round" stroke-linejoin="round"/>
<path d="M20.7935 10.8417C22.0168 5.77239 27.185 4.11589 30.6781 4.69195C27.4475 8.58211 29.7441 15.4364 20.7256 15.4364" stroke="#333333" stroke-width="1.3" stroke-miterlimit="22.9256" stroke-linecap="round" stroke-linejoin="round"/>
</svg>
