<?xml version="1.0" encoding="UTF-8" standalone="no"?>
<!-- Created with Inkscape (http://www.inkscape.org/) -->

<svg
   version="1.1"
   id="svg2"
   xml:space="preserve"
   width="480"
   height="240"
   viewBox="20 20 440 200"
   sodipodi:docname="LOGO AgriAdapt horiz 4C.eps"
   xmlns:inkscape="http://www.inkscape.org/namespaces/inkscape"
   xmlns:sodipodi="http://sodipodi.sourceforge.net/DTD/sodipodi-0.dtd"
   xmlns="http://www.w3.org/2000/svg"
   xmlns:svg="http://www.w3.org/2000/svg"><defs
     id="defs6" /><sodipodi:namedview
     id="namedview4"
     pagecolor="#ffffff"
     bordercolor="#666666"
     borderopacity="1.0"
     inkscape:pageshadow="2"
     inkscape:pageopacity="0.0"
     inkscape:pagecheckerboard="0" /><g
     id="g8"
     inkscape:groupmode="layer"
     inkscape:label="ink_ext_XXXXXX"
     transform="matrix(1.3333333,0,0,-1.3333333,0,240)"><g
       id="g10"
       transform="scale(0.1)"><path
         d="M 1400.65,405.391 C 1127.48,176.172 445.84,447.07 445.84,447.07 c 0,0 -148.418,718.33 124.75,947.54 273.164,229.21 954.8,-41.68 954.8,-41.68 0,0 148.42,-718.328 -124.74,-947.539"
         style="fill:#89c328;fill-opacity:1;fill-rule:nonzero;stroke:none"
         id="path12" /><path
         d="M 1538.47,642.199 C 1396.09,336.871 704.277,296.672 704.277,296.672 c 0,0 -413.886,555.797 -271.511,861.128 142.379,305.33 834.194,345.54 834.194,345.54 0,0 413.89,-555.809 271.51,-861.141"
         style="fill:#247a4b;fill-opacity:1;fill-rule:nonzero;stroke:none"
         id="path14" /><path
         d="m 662.633,877.77 -80.422,-26.36 c -4.727,-12.164 -6.082,-18.246 -6.082,-26.355 0,-20.274 12.168,-32.434 32.441,-32.434 10.137,0 22.305,3.379 33.114,9.457 5.41,2.703 9.464,5.406 20.949,14.192 z M 755.895,733.82 H 739 c -40.547,0 -53.391,6.758 -67.578,34.469 -29.738,-27.039 -56.094,-38.519 -87.852,-38.519 -53.398,0 -91.242,35.14 -91.242,85.148 0,10.812 2.031,21.625 5.41,31.762 10.813,29.062 29.739,43.929 75.684,57.445 l 89.211,25.68 v 26.355 c 0,33.797 -12.16,49.34 -38.516,49.34 -24.336,0 -43.926,-12.844 -43.926,-28.387 0,-2.703 0.672,-4.054 2.02,-8.109 l -77.039,-16.895 c -3.379,9.457 -4.055,12.836 -4.055,21.625 0,55.416 48.653,87.176 133.809,87.176 75.019,0 108.808,-31.08 108.808,-100.015 v -131.11 c 0,-28.383 3.379,-33.113 25,-35.144 L 755.895,733.82"
         style="fill:#ffffff;fill-opacity:1;fill-rule:nonzero;stroke:none"
         id="path16" /><path
         d="m 936.559,1002.79 c -28.391,0 -51.368,-27.028 -51.368,-59.466 0,-31.765 22.977,-57.445 52.039,-57.445 29.055,0 52.032,25.68 52.032,58.121 0,32.438 -23.653,58.79 -52.703,58.79 z m 49.324,-283.841 h -97.988 c -2.704,-4.73 -4.735,-8.777 -6.758,-10.808 -9.461,-15.551 -14.871,-27.711 -14.871,-35.821 0,-19.601 29.062,-35.14 66.23,-35.14 24.336,0 50.692,8.781 69.604,24.332 14.88,11.476 23.66,25.679 23.66,37.84 0,12.839 -12.84,19.597 -39.877,19.597 z m 71.637,272.356 c 10.81,-15.543 14.19,-26.36 14.19,-46.633 0,-71.637 -55.41,-119.617 -137.858,-119.617 -8.114,0 -12.84,0 -22.977,2.031 -20.949,-15.547 -31.094,-25.684 -31.094,-33.797 0,-6.758 5.41,-8.777 20.957,-8.777 h 110.152 c 61.5,0 90.56,-25.012 90.56,-75.703 0,-78.387 -75.69,-135.149 -181.114,-135.149 -77.039,0 -129.082,31.762 -129.082,79.059 0,24.34 13.516,45.281 50.012,76.371 -31.086,11.488 -43.926,23.648 -43.926,42.582 0,18.238 10.808,32.433 41.219,52.707 4.054,3.379 10.812,7.434 19.601,14.195 -14.191,10.813 -20.273,15.543 -27.707,24.324 -18.25,21.629 -27.715,47.313 -27.715,77.043 0,75.019 51.367,120.969 134.492,120.969 22.981,0 35.821,-2.7 65.55,-12.84 h 46.63 l 63.53,4.06 v -60.825 h -55.42"
         style="fill:#ffffff;fill-opacity:1;fill-rule:nonzero;stroke:none"
         id="path18" /><path
         d="m 1309.95,956.16 c -8.78,6.762 -15.55,9.465 -24.33,9.465 -12.84,0 -27.03,-8.785 -39.2,-23.652 -14.86,-18.246 -21.62,-36.493 -21.62,-60.149 V 737.879 h -80.43 v 314.251 h 69.61 l 3.38,-68.939 c 30.41,53.399 50.01,73.669 74.34,73.669 16.9,0 31.09,-7.43 43.93,-22.31 l -25.68,-78.39"
         style="fill:#ffffff;fill-opacity:1;fill-rule:nonzero;stroke:none"
         id="path20" /><path
         d="m 1361.65,737.879 v 314.251 h 80.42 V 737.879 Z m 40.54,372.371 c -25,0 -45.95,24.32 -45.95,54.74 0,30.41 20.95,54.74 45.95,54.74 25.01,0 45.29,-24.33 45.29,-54.74 0,-30.42 -20.28,-54.74 -45.29,-54.74"
         style="fill:#ffffff;fill-opacity:1;fill-rule:nonzero;stroke:none"
         id="path22" /><path
         d="m 1797.89,877.77 -80.42,-26.36 c -4.73,-12.164 -6.09,-18.246 -6.09,-26.355 0,-20.274 12.17,-32.434 32.44,-32.434 10.14,0 22.31,3.379 33.12,9.457 5.41,2.703 9.46,5.406 20.95,14.192 z m 93.26,-143.95 h -16.9 c -40.54,0 -53.39,6.758 -67.58,34.469 -29.73,-27.039 -56.09,-38.519 -87.85,-38.519 -53.4,0 -91.24,35.14 -91.24,85.148 0,10.812 2.03,21.625 5.41,31.762 10.81,29.062 29.74,43.929 75.69,57.445 l 89.21,25.68 v 26.355 c 0,33.797 -12.16,49.34 -38.52,49.34 -24.34,0 -43.93,-12.844 -43.93,-28.387 0,-2.703 0.68,-4.054 2.03,-8.109 l -77.05,-16.895 c -3.37,9.457 -4.05,12.836 -4.05,21.625 0,55.416 48.65,87.176 133.81,87.176 75.02,0 108.81,-31.08 108.81,-100.015 v -131.11 c 0,-28.383 3.38,-33.113 25,-35.144 l -12.84,-60.821"
         style="fill:#89c328;fill-opacity:1;fill-rule:nonzero;stroke:none"
         id="path24" /><path
         d="m 2146.15,925.754 c 0,17.57 -2.03,33.789 -4.06,40.547 -5.41,16.89 -27.71,29.058 -52.71,29.058 -44.61,0 -77.72,-43.929 -77.72,-103.394 0,-56.774 26.35,-96.645 64.88,-96.645 25,0 50.01,16.899 69.61,47.309 z m 0,-187.875 v 42.57 c -11.5,-18.238 -16.9,-24.328 -31.77,-33.789 -18.24,-11.488 -37.84,-17.57 -58.79,-17.57 -74.34,0 -129.08,66.23 -129.08,156.789 0,97.312 66.9,175.711 150.03,175.711 8.79,0 18.24,-0.68 27.7,-3.38 16.9,-3.37 24.34,-6.76 41.91,-18.92 v 191.25 h 80.42 V 737.879 h -80.42"
         style="fill:#89c328;fill-opacity:1;fill-rule:nonzero;stroke:none"
         id="path26" /><path
         d="m 2448.11,877.77 -80.42,-26.36 c -4.73,-12.164 -6.08,-18.246 -6.08,-26.355 0,-20.274 12.16,-32.434 32.44,-32.434 10.13,0 22.3,3.379 33.11,9.457 5.41,2.703 9.47,5.406 20.95,14.192 z m 93.26,-143.95 h -16.89 c -40.55,0 -53.39,6.758 -67.58,34.469 -29.74,-27.039 -56.09,-38.519 -87.85,-38.519 -53.4,0 -91.24,35.14 -91.24,85.148 0,10.812 2.03,21.625 5.41,31.762 10.81,29.062 29.73,43.929 75.68,57.445 l 89.21,25.68 v 26.355 c 0,33.797 -12.16,49.34 -38.52,49.34 -24.33,0 -43.92,-12.844 -43.92,-28.387 0,-2.703 0.67,-4.054 2.02,-8.109 l -77.04,-16.895 c -3.38,9.457 -4.05,12.836 -4.05,21.625 0,55.416 48.65,87.176 133.81,87.176 75.01,0 108.8,-31.08 108.8,-100.015 v -131.11 c 0,-28.383 3.38,-33.113 25,-35.144 l -12.84,-60.821"
         style="fill:#89c328;fill-opacity:1;fill-rule:nonzero;stroke:none"
         id="path28" /><path
         d="m 2749.94,995.359 c -27.03,0 -50.01,-16.218 -69.61,-49.336 v -80.418 -24.332 c 0,-22.296 4.05,-30.41 17.57,-37.843 10.81,-5.41 26.35,-9.461 39.87,-9.461 43.25,0 77.04,45.953 77.04,104.754 0,56.765 -27.03,96.636 -64.87,96.636 z m -3.38,-266.949 c -8.12,0 -16.9,0.68 -25.01,2.031 -18.93,3.379 -25.69,6.758 -41.22,20.278 V 580.422 h -81.11 v 471.708 h 81.11 v -42.58 c 15.53,20.28 23.65,28.38 34.46,35.82 15.55,10.14 33.79,15.54 54.06,15.54 75.7,0 130.44,-66.226 130.44,-156.785 0,-99.344 -66.91,-175.715 -152.73,-175.715"
         style="fill:#89c328;fill-opacity:1;fill-rule:nonzero;stroke:none"
         id="path30" /><path
         d="m 3089.55,750.039 c -23.66,-13.519 -47.98,-20.949 -70.29,-20.949 -41.89,0 -61.49,21.629 -61.49,68.262 v 195.304 h -46.63 v 51.364 l 46.63,8.11 v 93.93 h 76.37 v -93.93 h 68.25 v -59.474 h -68.25 v -139.89 c 0,-35.145 3.37,-45.282 16.21,-45.282 9.46,0 20.95,4.735 43.25,19.602 l 25.68,-58.797 -29.73,-18.25"
         style="fill:#89c328;fill-opacity:1;fill-rule:nonzero;stroke:none"
         id="path32" /><path
         d="m 2793.76,603.738 c -5.5,0 -9.68,-1.316 -16.05,-4.617 v -60.949 c 5.72,-2.203 8.35,-2.863 12.09,-2.863 16.51,0 29.27,16.511 29.27,38.07 0,18.48 -9.9,30.359 -25.31,30.359 z m -7.04,-88.008 c -6.38,0 -13.63,0.879 -20.68,2.2 -5.28,0.879 -7.92,1.539 -14.53,3.742 v 157.539 h 26.2 v -60.723 c 7.48,3.742 16.05,5.492 25.51,5.492 26.41,0 43.35,-19.14 43.35,-49.281 0,-36.308 -22.88,-58.969 -59.85,-58.969"
         style="fill:#bdbcbc;fill-opacity:1;fill-rule:nonzero;stroke:none"
         id="path34" /><path
         d="m 2906.18,604.18 c -11.66,0 -19.59,-7.918 -21.79,-21.782 h 40.05 c -0.66,15.622 -5.93,21.782 -18.26,21.782 z m 33.66,-80.969 c -10.78,-4.84 -21.78,-7.262 -33.66,-7.262 -30.37,0 -49.51,20.02 -49.51,51.27 0,32.34 22,56.761 51.27,56.761 25.3,0 42.91,-19.14 42.91,-46.859 v -11.223 h -67.77 c 0.44,-8.589 1.1,-12.109 3.51,-16.289 4.41,-7.48 13.2,-12.32 22.89,-12.32 3.96,0 7.92,0.441 12.1,1.762 6.16,1.758 10.12,3.738 19.58,9.679 l 9.69,-20.019 c -4.84,-2.641 -8.58,-4.402 -11.01,-5.5"
         style="fill:#bdbcbc;fill-opacity:1;fill-rule:nonzero;stroke:none"
         id="path36" /><path
         d="m 3013.32,522.77 c -7.7,-4.399 -15.62,-6.821 -22.88,-6.821 -13.64,0 -20.03,7.039 -20.03,22.223 v 63.59 h -15.18 v 16.726 l 15.18,2.633 v 30.59 h 24.86 v -30.59 h 22.23 v -19.359 h -22.23 v -45.551 c 0,-11.43 1.11,-14.742 5.29,-14.742 3.07,0 6.81,1.543 14.08,6.383 l 8.36,-19.141 -9.68,-5.941"
         style="fill:#bdbcbc;fill-opacity:1;fill-rule:nonzero;stroke:none"
         id="path38" /><path
         d="m 3085.69,564.359 -26.18,-8.589 c -1.53,-3.95 -1.98,-5.938 -1.98,-8.571 0,-6.597 3.96,-10.57 10.57,-10.57 3.3,0 7.26,1.101 10.78,3.082 1.75,0.891 3.07,1.758 6.81,4.629 z m 30.37,-46.871 h -5.5 c -13.2,0 -17.38,2.203 -22.01,11.223 -9.67,-8.801 -18.26,-12.539 -28.6,-12.539 -17.38,0 -29.7,11.437 -29.7,27.726 0,3.512 0.66,7.043 1.76,10.34 3.52,9.453 9.68,14.301 24.64,18.703 l 29.04,8.36 v 8.578 c 0,11 -3.95,16.062 -12.54,16.062 -7.92,0 -14.29,-4.179 -14.29,-9.242 0,-0.879 0.21,-1.32 0.65,-2.64 l -25.08,-5.508 c -1.1,3.09 -1.31,4.187 -1.31,7.051 0,18.039 15.84,28.378 43.56,28.378 24.42,0 35.42,-10.121 35.42,-32.558 V 548.73 c 0,-9.242 1.1,-10.781 8.14,-11.441 l -4.18,-19.801"
         style="fill:#bdbcbc;fill-opacity:1;fill-rule:nonzero;stroke:none"
         id="path40" /></g></g></svg>
