<svg width="297" height="348" viewBox="0 0 297 348" fill="none" xmlns="http://www.w3.org/2000/svg">
<path fill-rule="evenodd" clip-rule="evenodd" d="M375.479 -9.66987C398.095 29.1514 431.579 70.1716 426.501 111.553C421.404 153.078 371.01 160.92 350.48 194.03C330.537 226.194 362.606 323.289 331.857 343.176C300.833 363.241 234.303 300.409 195.345 294.363C151.343 287.534 103.544 294.535 66.2966 263.002C28.3627 230.887 0.875535 177.499 0.265949 129.211C-0.323207 82.5416 57.3842 66.1024 63.241 20.9532C70.2807 -33.3144 40.333 -83.802 70.1421 -124.626C97.5486 -162.161 128.353 -139.331 176.163 -133.697C216.362 -128.96 257.35 -138.207 294.45 -115.121C331.337 -92.1676 352.635 -48.883 375.479 -9.66987Z" fill="#F4F7F3"/>
</svg>
