<svg width="194" height="32" viewBox="0 0 194 32" fill="none" xmlns="http://www.w3.org/2000/svg">
<path fill-rule="evenodd" clip-rule="evenodd" d="M23.2157 7.13313L19.0542 11.2941L11.9216 4.16099L16.083 0L23.2157 7.13313ZM10.2981 5.64706L0 15.9459L7.26978 23.2157L17.5686 12.9168L10.2981 5.64706ZM68.7796 14.5739C69.2767 14.7138 69.741 14.912 70.1729 15.1681C70.6048 15.4242 70.9629 15.7682 71.2468 16.1988C71.531 16.6302 71.6728 17.2065 71.6728 17.929C71.6728 18.6161 71.5425 19.2158 71.2823 19.7284C71.0221 20.2414 70.67 20.6666 70.2262 21.0043C69.7824 21.342 69.2676 21.5923 68.6821 21.7552C68.0966 21.9184 67.4776 22 66.8273 22C66.0105 22 65.2536 21.8776 64.5552 21.6331C63.8568 21.3883 63.2062 20.9923 62.6029 20.4447L64.573 18.3134C64.8568 18.6861 65.2149 18.9744 65.6469 19.1777C66.0784 19.3821 66.5253 19.4839 66.9868 19.4839C67.2115 19.4839 67.4397 19.4575 67.6702 19.4051C67.9008 19.353 68.1081 19.2741 68.2917 19.1691C68.4752 19.0642 68.6229 18.9309 68.7354 18.7677C68.8475 18.6045 68.904 18.4125 68.904 18.1906C68.904 17.8178 68.7587 17.5244 68.4689 17.3083C68.1791 17.093 67.8151 16.9092 67.3773 16.758C66.9395 16.6068 66.4661 16.4553 65.9576 16.3037C65.4487 16.1525 64.9749 15.9485 64.5375 15.6924C64.0996 15.4359 63.7356 15.0981 63.4458 14.6788C63.1556 14.2595 63.0111 13.706 63.0111 13.0189C63.0111 12.3551 63.1442 11.7726 63.4103 11.2716C63.6764 10.771 64.0317 10.3517 64.4755 10.0132C64.9192 9.67584 65.4309 9.42245 66.0105 9.25339C66.5904 9.08472 67.1882 9 67.8033 9C68.5131 9 69.1993 9.0991 69.8622 9.29731C70.5251 9.49513 71.1228 9.82741 71.655 10.293L69.756 12.3372C69.531 12.0578 69.2262 11.8511 68.8416 11.717C68.4571 11.5833 68.0935 11.5164 67.7504 11.5164C67.549 11.5164 67.3418 11.5398 67.129 11.586C66.9158 11.6326 66.7148 11.7057 66.5253 11.8044C66.3362 11.9035 66.1822 12.0349 66.0638 12.1973C65.9453 12.3606 65.8865 12.5588 65.8865 12.7916C65.8865 13.1647 66.0282 13.4499 66.3125 13.6477C66.5964 13.8463 66.9541 14.0146 67.3864 14.1545C67.8179 14.2944 68.2826 14.434 68.7796 14.5739ZM50.728 15.2991C51.1895 14.6877 51.4204 13.9451 51.4204 13.0714C51.4204 12.3489 51.2929 11.7461 51.0391 11.2627C50.784 10.7796 50.4409 10.3952 50.009 10.1096C49.5771 9.82431 49.0745 9.60395 48.5005 9.48152C47.9264 9.3591 47.32 9.28176 46.6808 9.28176H42V21.7182H44.7636V16.6659H45.9536L48.5802 21.7182H51.8997L48.7046 16.4774C49.5925 16.3146 50.2664 15.9104 50.728 15.2991ZM48.3232 13.8401C48.1751 14.0267 47.9884 14.1631 47.7642 14.2509C47.5695 14.3261 47.3557 14.3381 47.1218 14.3512C47.0848 14.3533 47.0473 14.3554 47.0093 14.3578C46.843 14.3682 46.6823 14.3577 46.5268 14.3476C46.4221 14.3408 46.3197 14.3341 46.2197 14.3341H44.7636V11.6136H46.3973C46.6457 11.6136 46.8999 11.635 47.1601 11.6696C47.4207 11.7045 47.6516 11.7737 47.8526 11.8724C48.0536 11.9719 48.2194 12.1153 48.3497 12.3015C48.4795 12.488 48.5447 12.7387 48.5447 13.0531C48.5447 13.3916 48.4709 13.654 48.3232 13.8401ZM55.8182 16.6659H61.3455V13.9454H55.8182V12.0022H61.3455V9.28176H53.0545V21.7182H61.7403V18.9978H55.8182V16.6659ZM84.222 10.7563C83.6188 10.1912 82.903 9.75746 82.0747 9.45432C81.246 9.15157 80.3407 9 79.3588 9C78.3766 9 77.4713 9.15157 76.643 9.45432C75.8143 9.75746 75.0989 10.1912 74.4952 10.7563C73.8916 11.3213 73.4214 12.0054 73.0838 12.8094C72.747 13.6128 72.5781 14.5101 72.5781 15.5C72.5781 16.4903 72.747 17.3872 73.0838 18.1906C73.4214 18.9946 73.8916 19.679 74.4952 20.2441C75.0989 20.8092 75.8143 21.2429 76.643 21.5457C77.4713 21.8484 78.3766 22 79.3588 22C80.3407 22 81.246 21.8484 82.0747 21.5457C82.903 21.2429 83.6188 20.8092 84.222 20.2441C84.8261 19.679 85.2963 18.9946 85.6339 18.1906C85.9706 17.3872 86.1396 16.4903 86.1396 15.5C86.1396 14.5101 85.9706 13.6128 85.6339 12.8094C85.2963 12.0054 84.8261 11.3213 84.222 10.7563ZM82.1987 18.3569C82.5418 18.0017 82.8051 17.5823 82.9887 17.0989C83.1719 16.6158 83.2639 16.083 83.2639 15.5C83.2639 14.9295 83.1719 14.3994 82.9887 13.9101C82.8051 13.4208 82.5418 12.9987 82.1987 12.6431C81.8556 12.2879 81.4442 12.0116 80.9649 11.813C80.4856 11.6152 79.9503 11.5164 79.3588 11.5164C78.767 11.5164 78.2317 11.6152 77.7524 11.813C77.2731 12.0116 76.8621 12.2879 76.5186 12.6431C76.1755 12.9987 75.9122 13.4208 75.729 13.9101C75.5454 14.3994 75.4538 14.9295 75.4538 15.5C75.4538 16.083 75.5454 16.6158 75.729 17.0989C75.9122 17.5823 76.1755 18.0017 76.5186 18.3569C76.8621 18.7121 77.2731 18.9888 77.7524 19.187C78.2317 19.3852 78.767 19.4839 79.3588 19.4839C79.9503 19.4839 80.4856 19.3852 80.9649 19.187C81.4442 18.9888 81.8556 18.7121 82.1987 18.3569ZM95.1475 17.8765C95.2719 17.5505 95.2987 17.1949 95.2987 16.8105V9.28176H98.0623V16.9154C98.0623 17.6492 97.9865 18.325 97.7619 18.9422C97.5372 19.5597 97.24 20.0957 96.7962 20.55C96.352 21.0043 95.7965 21.3595 95.1341 21.6156C94.4712 21.8717 93.7033 22 92.8399 22C91.9642 22 91.1864 21.8717 90.5235 21.6156C89.861 21.3595 89.2906 21.0043 88.8468 20.55C88.403 20.0957 88.0339 19.5597 87.8089 18.9422C87.5842 18.325 87.4026 17.6492 87.4026 16.9154V9.28176H90.1662V16.8105C90.1662 17.1949 90.2997 17.5505 90.424 17.8765C90.548 18.2026 90.7944 18.4851 91.019 18.7238C91.244 18.9628 91.5121 19.1489 91.8256 19.283C92.1391 19.4171 92.4774 19.4839 92.8442 19.4839C93.2106 19.4839 93.5438 19.4171 93.8513 19.283C94.1589 19.1489 94.4167 18.9628 94.6413 18.7238C94.8664 18.4851 95.0231 18.2026 95.1475 17.8765ZM109.126 15.2991C109.587 14.6877 109.818 13.9451 109.818 13.0714C109.818 12.3489 109.69 11.7461 109.436 11.2627C109.181 10.7796 108.838 10.3952 108.406 10.1096C107.974 9.82431 107.472 9.60395 106.898 9.48152C106.324 9.3591 105.718 9.28176 105.078 9.28176H100.036V21.7182H102.8V16.6659H104.351L106.977 21.7182H110.297L107.102 16.4774C107.99 16.3146 108.664 15.9104 109.126 15.2991ZM106.161 14.2509C106.386 14.1631 106.572 14.0267 106.72 13.8401C106.868 13.654 106.942 13.3916 106.942 13.0531C106.942 12.7387 106.877 12.488 106.747 12.3015C106.617 12.1153 106.451 11.9719 106.25 11.8724C106.049 11.7737 105.818 11.7045 105.557 11.6696C105.297 11.635 105.043 11.6136 104.795 11.6136H102.8V14.3341H104.617C104.717 14.3341 104.819 14.3408 104.924 14.3476C105.08 14.3577 105.241 14.3682 105.407 14.3578L105.451 14.3551L105.519 14.3512L105.519 14.3512C105.753 14.3381 105.967 14.3261 106.161 14.2509ZM116.989 19.4839C117.557 19.4839 118.06 19.3677 118.497 19.1342C118.935 18.9014 119.296 18.5753 119.58 18.156L121.888 19.8508C121.355 20.585 120.681 21.1263 119.864 21.4761C119.048 21.8251 118.207 22 117.344 22C116.362 22 115.456 21.8484 114.628 21.5457C113.799 21.2429 113.084 20.8092 112.48 20.2441C111.877 19.679 111.406 18.9946 111.069 18.1906C110.732 17.3872 110.563 16.4903 110.563 15.5C110.563 14.5101 110.732 13.6128 111.069 12.8094C111.406 12.0054 111.877 11.3213 112.48 10.7563C113.084 10.1912 113.799 9.75746 114.628 9.45432C115.456 9.15157 116.362 9 117.344 9C117.699 9 118.069 9.03226 118.453 9.09599C118.837 9.16012 119.216 9.26233 119.589 9.40185C119.962 9.54138 120.32 9.72831 120.663 9.96111C121.006 10.1943 121.314 10.4796 121.586 10.8173L119.456 12.5296C119.184 12.2036 118.849 11.9533 118.453 11.778C118.056 11.6035 117.598 11.5164 117.077 11.5164C116.557 11.5164 116.075 11.6152 115.631 11.813C115.187 12.0116 114.802 12.2879 114.477 12.6431C114.151 12.9987 113.897 13.4208 113.714 13.9101C113.53 14.3994 113.439 14.9295 113.439 15.5C113.439 16.083 113.53 16.6158 113.714 17.0989C113.897 17.5823 114.149 18.0017 114.468 18.3569C114.787 18.7121 115.163 18.9888 115.595 19.187C116.027 19.3852 116.492 19.4839 116.989 19.4839ZM125.699 16.6659H131.226V13.9454H125.699V12.0022H131.621V9.28176H122.935V21.7182H132.016V18.9978H125.699V16.6659ZM145.389 20.1637L148.513 9.28176H149.72L146.063 21.7182H144.626L141.448 10.8363H141.413L138.235 21.7182H136.797L133.141 9.28176H134.348L137.472 20.1637H137.508L140.685 9.28176H142.176L145.353 20.1637H145.389ZM154.902 9.28176L149.417 21.7183H150.642L152.062 18.2205H158.719L160.085 21.7183H161.399L156.109 9.28176H154.902ZM155.452 10.6642L152.524 17.4432H158.293L155.452 10.6642ZM165.574 10.4477H161.231V9.28176H171.101V10.4477H166.758V21.7182H165.574V10.4477ZM181.048 19.8944C180.752 20.133 180.442 20.3312 180.116 20.4886C179.791 20.646 179.457 20.7626 179.113 20.838C178.77 20.9138 178.439 20.9515 178.119 20.9515C177.303 20.9515 176.567 20.8119 175.91 20.5321C175.253 20.2527 174.694 19.8683 174.232 19.379C173.771 18.8897 173.416 18.3134 173.167 17.6492C172.919 16.9854 172.794 16.2687 172.794 15.5C172.794 14.7313 172.919 14.0146 173.167 13.3508C173.416 12.6866 173.771 12.1103 174.232 11.621C174.694 11.1317 175.253 10.7473 175.91 10.4675C176.567 10.1885 177.303 10.0482 178.119 10.0482C178.758 10.0482 179.382 10.1826 179.992 10.45C180.601 10.7186 181.101 11.1437 181.492 11.7259L182.45 10.9393C181.894 10.2405 181.246 9.74269 180.507 9.44538C179.767 9.14846 178.972 9 178.119 9C177.161 9 176.282 9.16323 175.484 9.4893C174.685 9.81575 174.002 10.267 173.433 10.8433C172.866 11.4201 172.422 12.1045 172.102 12.8965C171.783 13.6885 171.623 14.5564 171.623 15.5C171.623 16.4432 171.783 17.3146 172.102 18.112C172.422 18.9103 172.866 19.5974 173.433 20.1742C174.002 20.7505 174.685 21.1994 175.484 21.5196C176.282 21.8395 177.161 22 178.119 22C179.042 22 179.9 21.8251 180.693 21.4761C181.486 21.1263 182.184 20.55 182.788 19.7459L181.829 19.0296C181.605 19.3677 181.344 19.6557 181.048 19.8944ZM192.816 14.7227V9.28176H194V21.7182H192.816V15.8886H185.709V21.7182H184.525V9.28176H185.709V14.7227H192.816ZM21.7011 26.3529L32 16.0541L24.7302 8.78431L14.4314 19.0832L21.7011 26.3529ZM8.78431 24.8669L12.9453 20.7059L20.0784 27.839L15.9174 32L8.78431 24.8669Z" fill="white"/>
</svg>
