<svg width="799" height="902" viewBox="0 72 799 902" fill="none" xmlns="http://www.w3.org/2000/svg">
<path fill-rule="evenodd" clip-rule="evenodd" d="M993 8.68876C1047.65 102.69 1130.37 200.96 1112.58 304.375C1094.73 408.146 962.573 433.186 905.439 517.744C849.94 599.882 922.801 837.685 840.5 890.5C757.464 943.787 591.048 794.943 490.218 784.204C376.331 772.075 251.028 794.741 157.459 720.465C62.1652 644.82 -3.56912 515.148 0.159531 395.194C3.76322 279.261 155.919 232.047 176.149 119.183C200.465 -16.4757 128.001 -138.667 210.158 -243.419C285.694 -339.729 363.435 -286.376 487.374 -277.637C591.585 -270.29 699.388 -297.788 793.503 -244.492C887.08 -191.501 937.802 -86.2613 993 8.68876Z" fill="#F4F7F3"/>
</svg>
