<svg width="214" height="37" viewBox="0 0 214 37" fill="none" xmlns="http://www.w3.org/2000/svg">
<g opacity="0.8">
<g opacity="0.6">
<path opacity="0.6" d="M1.36523 29.4889C1.24112 29.4889 1.14804 29.458 1.05495 29.3652C0.899814 29.2107 0.899814 28.9325 1.05495 28.7779C1.42729 28.407 10.3013 19.8138 14.5832 19.4429C16.6931 19.2574 19.3925 20.8957 21.9988 22.5031C24.1087 23.8013 26.3117 25.1614 27.9252 25.285C31.3072 25.5941 38.1024 23.3995 41.019 22.1321C44.6493 20.5557 54.1128 13.5081 54.2059 13.4463C54.3921 13.3226 54.6403 13.3535 54.7954 13.539C54.9195 13.7244 54.8885 13.9717 54.7023 14.1263C54.299 14.4045 45.0526 21.3285 41.3293 22.9358C38.6609 24.0795 31.5865 26.4596 27.8321 26.1505C26.0325 25.996 23.8295 24.6359 21.5334 23.2449C19.0512 21.7303 16.4759 20.123 14.6142 20.3084C10.6116 20.6793 1.67551 29.3343 1.58243 29.427C1.58243 29.458 1.48935 29.4889 1.36523 29.4889Z" fill="url(#paint0_linear_1934_4303)"/>
</g>
<g opacity="0.8">
<path opacity="0.8" d="M30.0661 29.7051C29.2284 29.7051 28.4837 29.6433 27.8631 29.4888C25.6291 28.9324 23.5502 26.4904 21.3783 23.8939C19.1443 21.2665 16.8482 18.5464 14.6452 18.3609C14.5832 18.3609 14.4901 18.3609 14.397 18.3609C10.5495 18.3609 1.73758 25.6558 1.64449 25.7177C1.45832 25.8722 1.2101 25.8413 1.05496 25.6558C0.899821 25.4704 0.930848 25.2231 1.11702 25.0685C1.48935 24.7594 10.6736 17.1863 14.7073 17.5264C17.2826 17.7427 19.6718 20.5865 21.9988 23.3685C24.0157 25.7486 26.0635 28.1905 28.0493 28.6851C31.09 29.4269 38.1644 27.8814 41.019 26.2431C45.6732 23.5539 54.0818 10.046 54.1749 9.92234C54.299 9.73688 54.5472 9.67506 54.7644 9.7987C54.9506 9.92234 55.0126 10.1696 54.8885 10.386C54.5472 10.9424 46.2938 24.203 41.4534 27.0159C39.1884 28.2523 33.8205 29.7051 30.0661 29.7051Z" fill="url(#paint1_linear_1934_4303)"/>
</g>
<g opacity="0.7">
<path opacity="0.7" d="M32.4863 26.2426C30.6556 26.2426 28.9801 26.0881 27.8321 25.8099C25.9084 25.3153 23.8605 23.4298 21.7196 21.4515C19.2994 19.2259 16.7861 16.9076 14.6452 16.9076C10.7047 16.9076 1.73757 25.5935 1.64449 25.6862C1.48935 25.8408 1.21009 25.8408 1.05495 25.6862C0.899814 25.5317 0.899814 25.2535 1.05495 25.0989C1.42729 24.728 10.3323 16.073 14.6452 16.073C17.0964 16.073 19.7338 18.4841 22.2781 20.8333C24.2639 22.657 26.3117 24.5425 28.0493 24.9753C31.028 25.7481 38.1334 25.439 41.05 24.0789C45.5491 22.0079 54.0818 9.98366 54.1749 9.86001C54.299 9.67455 54.5782 9.61273 54.7644 9.76729C54.9506 9.89093 55.0126 10.1691 54.8575 10.3546C54.5162 10.8492 46.1076 22.6879 41.3913 24.8517C39.4055 25.779 35.7132 26.2426 32.4863 26.2426Z" fill="url(#paint2_linear_1934_4303)"/>
</g>
<g opacity="0.8">
<path opacity="0.8" d="M28.6078 32.5184C28.3596 32.5184 28.1114 32.4875 27.8631 32.4566C25.1327 32.0238 23.0228 28.5618 20.9749 25.1926C19.0202 21.9779 16.9723 18.6395 14.5832 18.3304C11.5424 17.8977 4.18879 23.4925 1.61347 25.6871C1.4273 25.8417 1.17907 25.8108 1.02393 25.6253C0.868793 25.4399 0.899821 25.1926 1.05496 25.038C1.45832 24.698 10.6426 16.9394 14.6762 17.4958C17.4688 17.8668 19.5787 21.3906 21.6575 24.7598C23.6123 27.9436 25.6291 31.2511 27.9873 31.622C31.6175 32.2093 38.4127 26.9854 40.957 25.038C44.9906 21.947 54.0818 9.95364 54.1749 9.83C54.299 9.64454 54.5782 9.61363 54.7644 9.73727C54.9506 9.86092 54.9816 10.1391 54.8575 10.3246C54.4851 10.8191 45.6111 22.5343 41.4844 25.6871C37.3267 28.9328 32.176 32.5184 28.6078 32.5184Z" fill="url(#paint3_linear_1934_4303)"/>
</g>
<g opacity="0.8">
<path opacity="0.8" d="M28.6078 35.5472C28.3596 35.5472 28.1114 35.5163 27.8632 35.4544C25.1017 34.8362 23.0849 30.3233 20.9749 25.5321C18.9892 21.1119 16.9723 16.5062 14.6142 16.0735C11.6355 15.4862 4.28189 23.152 1.7376 26.1503C1.58246 26.3358 1.33423 26.3358 1.14807 26.2122C0.961899 26.0576 0.961898 25.8103 1.08601 25.6249C1.11704 25.5939 3.47517 22.8429 6.29871 20.1846C10.1772 16.568 13.0318 14.8989 14.7694 15.2389C17.5619 15.7644 19.6097 20.3391 21.7506 25.1921C23.7054 29.5814 25.7222 34.1253 28.0493 34.6508C31.6486 35.4544 38.3816 28.2832 40.9259 25.6249C44.9596 21.3592 54.0508 4.91475 54.1439 4.72929C54.268 4.51291 54.5162 4.45109 54.7024 4.57474C54.9196 4.69838 54.9816 4.94566 54.8575 5.13113C54.4852 5.81116 45.6112 21.8538 41.5155 26.1812C37.3577 30.6015 32.2071 35.5472 28.6078 35.5472Z" fill="url(#paint4_linear_1934_4303)"/>
</g>
<g opacity="0.8">
<path opacity="0.8" d="M1.36525 29.2109C1.21011 29.2109 1.05497 29.1182 0.992913 28.9636C0.899829 28.7472 0.992912 28.4999 1.21011 28.4072C1.61347 28.2217 11.077 24.0179 14.5521 23.0288C15.483 22.7506 23.8605 20.4014 27.9873 20.6177C29.6938 20.7105 31.9588 21.6069 34.348 22.5651C36.8613 23.5852 39.4986 24.6052 41.2362 24.5743C44.7114 24.4507 54.2369 19.5977 54.3611 19.5359C54.5783 19.4431 54.8265 19.505 54.9196 19.7213C55.0126 19.9377 54.9506 20.185 54.7334 20.2777C54.33 20.4941 44.9286 25.2543 41.2672 25.378C39.3435 25.4707 36.613 24.3579 34.0067 23.307C31.8037 22.4106 29.5076 21.4832 27.9252 21.4214C24.6983 21.2359 18.1514 22.8433 14.7693 23.8015C11.3563 24.7907 1.6445 29.0872 1.55142 29.1182C1.48936 29.2109 1.4273 29.2109 1.36525 29.2109Z" fill="url(#paint5_linear_1934_4303)"/>
</g>
<g opacity="0.8">
<path opacity="0.8" d="M30.5625 29.3957C29.5696 29.3957 28.6388 29.3339 27.8941 29.2103C26.0635 28.9012 23.8295 27.5102 21.5024 26.0265C19.0512 24.481 16.5379 22.8736 14.6452 22.75C11.2631 22.5336 1.67549 26.9847 1.55138 27.0465C1.33418 27.1393 1.08596 27.0465 0.992877 26.8611C0.899793 26.6447 0.992877 26.3974 1.17904 26.3047C1.58241 26.1192 11.077 21.699 14.6762 21.9463C16.7861 22.1008 19.3925 23.7391 21.9368 25.3465C24.1087 26.7065 26.3427 28.1284 28.0182 28.4066C31.3072 28.963 38.1644 28.0666 41.081 26.9847C44.8975 25.5319 54.1438 17.5879 54.2369 17.4952C54.4231 17.3406 54.6713 17.3715 54.8264 17.5261C54.9816 17.7115 54.9505 17.9588 54.7954 18.1134C54.4231 18.4534 45.3629 26.2429 41.3913 27.7266C39.0022 28.623 34.2238 29.3957 30.5625 29.3957Z" fill="url(#paint6_linear_1934_4303)"/>
</g>
<g opacity="0.6">
<path opacity="0.6" d="M32.9827 27.3865C31.028 27.3865 29.1973 27.2629 27.8941 27.0465C26.2186 26.7683 24.1398 25.7173 21.9057 24.5737C19.2994 23.2445 16.6 21.8844 14.6762 21.8844C11.2011 21.8844 1.6755 26.9538 1.58241 26.9847C1.36522 27.0774 1.117 27.0156 1.02391 26.7992C0.899801 26.5828 0.992884 26.3356 1.21008 26.2428C1.61344 26.0264 11.0149 21.0498 14.7073 21.0498C16.8172 21.0498 19.6097 22.4717 22.3091 23.8318C24.4811 24.9137 26.5289 25.9646 28.0493 26.2119C31.3072 26.7374 38.1334 26.6138 41.1431 25.6864C44.8665 24.5427 54.2059 17.4951 54.299 17.4333C54.4851 17.2787 54.7334 17.3406 54.8885 17.526C55.0436 17.7115 54.9816 17.9588 54.7954 18.1133C54.4231 18.4224 45.2698 25.3155 41.3913 26.521C39.4055 27.1083 36.0545 27.3865 32.9827 27.3865Z" fill="url(#paint7_linear_1934_4303)"/>
</g>
<g opacity="0.4">
<path opacity="0.4" d="M28.7319 30.9728C28.4527 30.9728 28.1734 30.9418 27.9252 30.9109C25.8153 30.6327 23.4261 28.6545 21.099 26.738C18.865 24.8834 16.5379 22.936 14.6452 22.7196C11.2942 22.3487 1.67553 26.9544 1.58245 27.0162C1.36525 27.1089 1.11703 27.0162 1.02394 26.8307C0.93086 26.6143 1.02394 26.3671 1.21011 26.2743C1.61348 26.0889 11.1391 21.5141 14.7383 21.9159C16.8792 22.1632 19.2994 24.1724 21.6575 26.1198C23.8605 27.9744 26.1566 29.86 28.0493 30.1072C31.2762 30.54 37.6059 27.8817 41.1121 26.2743C44.7113 24.6052 54.2369 17.5266 54.33 17.4648C54.5162 17.3412 54.7644 17.3721 54.9195 17.5575C55.0437 17.743 55.0126 17.9903 54.8265 18.1448C54.4231 18.423 45.1457 25.347 41.4534 27.0471C38.1024 28.5617 32.3001 30.9728 28.7319 30.9728Z" fill="url(#paint8_linear_1934_4303)"/>
</g>
<g opacity="0.6">
<path opacity="0.6" d="M28.0803 28.283C28.0183 28.283 27.9873 28.283 27.9562 28.283C25.7222 28.2212 23.24 26.1192 20.8508 24.0791C18.6789 22.2554 16.4759 20.3699 14.6452 20.1535C11.2942 19.7826 1.67553 24.2646 1.58245 24.2955C1.36525 24.3882 1.11703 24.2955 1.02394 24.11C0.93086 23.8937 1.02394 23.6464 1.21011 23.5537C1.61348 23.3682 11.1391 18.8861 14.7383 19.3189C16.8172 19.5662 19.0202 21.4517 21.3783 23.43C23.6744 25.3774 26.0325 27.3866 27.9873 27.4484C28.0183 27.4484 28.0493 27.4484 28.1114 27.4484C30.3764 27.4484 33.5723 25.3155 36.3648 23.43C38.1334 22.2554 39.7779 21.1426 41.1121 20.5862C44.277 19.3189 54.0197 16.7224 54.4541 16.5988C54.6713 16.5369 54.9196 16.6606 54.9816 16.9079C55.0437 17.1242 54.9196 17.3715 54.6713 17.4333C54.5782 17.4643 44.5562 20.1226 41.4224 21.3899C40.1502 21.8845 38.5368 22.9973 36.8302 24.141C33.9136 26.0883 30.6246 28.283 28.0803 28.283Z" fill="url(#paint9_linear_1934_4303)"/>
</g>
<g opacity="0.4">
<path opacity="0.4" d="M1.36524 31.5292C1.27215 31.5292 1.17907 31.4983 1.11701 31.4365C0.930845 31.3129 0.899819 31.0347 1.02393 30.8492C1.36524 30.3855 9.74279 19.3195 14.5832 18.4541C16.7551 18.0831 19.7028 19.6287 22.5263 21.1742C24.5742 22.287 26.5289 23.3379 27.9872 23.5234C31.1211 23.9561 37.8852 23.3688 41.0811 22.4106C44.7113 21.2978 54.1749 15.0539 54.2679 14.9921C54.4541 14.8684 54.7334 14.9302 54.8575 15.1157C54.9816 15.3012 54.9195 15.5794 54.7334 15.703C54.33 15.9503 45.0837 22.1015 41.3293 23.2452C38.0093 24.2652 31.09 24.8525 27.8631 24.3889C26.2497 24.1725 24.2329 23.0906 22.123 21.9469C19.4235 20.4941 16.6 18.9795 14.7073 19.3195C10.2082 20.1232 1.7686 31.2819 1.67552 31.3747C1.64449 31.4674 1.52038 31.5292 1.36524 31.5292Z" fill="url(#paint10_linear_1934_4303)"/>
</g>
<g opacity="0.8">
<path opacity="0.8" d="M1.36524 31.5292C1.27215 31.5292 1.2101 31.4983 1.11701 31.4365C0.930845 31.3128 0.899819 31.0346 1.02393 30.8492C1.36524 30.3546 9.68074 18.9177 14.5521 17.8049C16.7241 17.3103 19.7959 18.6704 22.8056 19.9686C24.7603 20.8341 26.622 21.6378 27.9872 21.8233C31.3383 22.256 38.0713 22.1633 41.1121 21.4214C44.6803 20.5559 54.2059 14.992 54.299 14.9302C54.4851 14.8066 54.7644 14.8684 54.8575 15.0848C54.9816 15.2702 54.9195 15.5484 54.7023 15.6412C54.299 15.8575 44.9906 21.2978 41.2983 22.1942C38.0713 22.9979 31.3072 23.0597 27.8631 22.627C26.4048 22.4415 24.4811 21.6069 22.4643 20.7105C19.7338 19.505 16.631 18.1449 14.7383 18.5777C10.1462 19.5977 1.7686 31.1892 1.70655 31.2819C1.64449 31.4674 1.52038 31.5292 1.36524 31.5292Z" fill="url(#paint11_linear_1934_4303)"/>
</g>
<g opacity="0.8">
<path opacity="0.8" d="M1.36524 31.5289C1.27215 31.5289 1.17907 31.498 1.11701 31.4362C0.930845 31.3125 0.899819 31.0343 1.02393 30.8489C1.36524 30.3852 9.71177 19.1028 14.5832 18.4537C16.7861 18.1446 19.5166 19.9992 22.154 21.823C24.2329 23.2449 26.3738 24.6977 27.9872 24.8831C31.4003 25.254 38.2885 22.9048 41.0811 21.8848C44.5562 20.6175 54.2059 15.0226 54.299 14.9917C54.4851 14.8681 54.7644 14.9299 54.8575 15.1463C54.9816 15.3317 54.9195 15.6099 54.7023 15.7027C54.299 15.919 44.8975 21.3593 41.3603 22.6576C38.5057 23.7085 31.4624 26.1195 27.8942 25.7177C26.0635 25.5322 23.9536 24.0485 21.6886 22.5339C19.1753 20.8338 16.6 19.0719 14.7073 19.3192C10.1772 19.9374 1.79963 31.2507 1.70655 31.3743C1.64449 31.4671 1.52038 31.5289 1.36524 31.5289Z" fill="url(#paint12_linear_1934_4303)"/>
</g>
</g>
<path d="M1.95476 0H0V37H1.95476V0Z" fill="#273F57"/>
<path d="M55.9745 0H54.0197V37H55.9745V0Z" fill="#273F57"/>
<path d="M73.0399 17.2174V21.6685H71.1161V10.5098H74.4361C75.9565 10.5098 77.1045 10.788 77.8182 11.3134C78.5628 11.8389 78.9041 12.6735 78.9041 13.7554C78.9041 15.1464 78.1285 16.1355 76.6081 16.7228L79.9591 21.6685H77.7561L74.9326 17.2174H73.0399ZM73.0399 15.7027H74.3741C75.2739 15.7027 75.9255 15.5482 76.3288 15.2391C76.7322 14.93 76.9494 14.4663 76.9494 13.8481C76.9494 13.2299 76.7322 12.7662 76.2978 12.488C75.8634 12.2098 75.2118 12.0862 74.312 12.0862H73.0399V15.7027Z" fill="#273F57"/>
<path d="M89.2675 21.6685H82.5655V10.5098H89.2675V12.0553H84.5202V15.0845H88.9883V16.5992H84.5202V20.0921H89.2675V21.6685Z" fill="#273F57"/>
<path d="M99.4757 18.6392C99.4757 19.6283 99.1034 20.4011 98.3277 20.9575C97.552 21.5139 96.528 21.7921 95.1938 21.7921C93.8596 21.7921 92.7737 21.6066 91.9049 21.2048V19.4738C92.4324 19.721 93.0219 19.9065 93.6114 20.0301C94.232 20.1538 94.7905 20.2465 95.318 20.2465C96.0937 20.2465 96.6522 20.1229 97.0245 19.8447C97.3968 19.5665 97.583 19.1956 97.583 18.7319C97.583 18.3301 97.4279 17.9591 97.0866 17.6809C96.7452 17.4028 96.0626 17.0627 95.0077 16.6609C93.9217 16.2591 93.177 15.7645 92.7116 15.239C92.2462 14.7135 92.06 14.0644 92.06 13.3226C92.06 12.3952 92.4013 11.6534 93.115 11.1279C93.8286 10.6024 94.7595 10.3242 95.9385 10.3242C97.0866 10.3242 98.2036 10.5715 99.3206 11.0352L98.7 12.5189C97.6451 12.117 96.7142 11.9007 95.8765 11.9007C95.2559 11.9007 94.7905 12.0243 94.4492 12.2716C94.1389 12.5189 93.9527 12.8589 93.9527 13.2916C93.9527 13.5698 94.0148 13.8171 94.1389 14.0335C94.263 14.2499 94.4802 14.4353 94.7905 14.6208C95.1008 14.8063 95.6282 15.0535 96.4039 15.3317C97.2727 15.6718 97.9243 15.9809 98.3277 16.29C98.731 16.5991 99.0413 16.9082 99.2275 17.2791C99.4137 17.65 99.4757 18.1137 99.4757 18.6392Z" fill="#273F57"/>
<path d="M102.516 21.6685V10.5098H104.44V21.6685H102.516Z" fill="#273F57"/>
<path d="M108.226 21.6685V10.5098H110.149V20.0921H115.145V21.6685H108.226Z" fill="#273F57"/>
<path d="M117.906 21.6685V10.5098H119.83V21.6685H117.906Z" fill="#273F57"/>
<path d="M130.318 21.6685H123.615V10.5098H130.318V12.0553H125.57V15.0845H130.038V16.5992H125.57V20.0921H130.318V21.6685Z" fill="#273F57"/>
<path d="M143.38 21.6685H141.022L135.189 12.7971H135.127L135.158 13.2917C135.22 14.2499 135.282 15.1154 135.282 15.8882V21.6685H133.513V10.5098H135.872L141.674 19.3502H141.736C141.736 19.2266 141.705 18.7938 141.674 18.0829C141.643 17.341 141.612 16.7846 141.612 16.3519V10.5098H143.38V21.6685Z" fill="#273F57"/>
<path d="M152.254 11.9319C151.137 11.9319 150.269 12.3028 149.617 13.0447C148.965 13.7866 148.655 14.8066 148.655 16.1048C148.655 17.4649 148.965 18.5159 149.586 19.1959C150.206 19.9068 151.075 20.2469 152.254 20.2469C152.751 20.2469 153.247 20.185 153.713 20.0923C154.178 19.9996 154.674 19.8759 155.171 19.7214V21.2978C154.24 21.6378 153.185 21.7924 152.006 21.7924C150.269 21.7924 148.934 21.2978 148.003 20.3087C147.073 19.3195 146.607 17.8977 146.607 16.0739C146.607 14.9302 146.824 13.9102 147.29 13.0447C147.755 12.1792 148.407 11.4992 149.245 11.0355C150.082 10.5718 151.106 10.3555 152.254 10.3555C153.464 10.3555 154.581 10.6027 155.605 11.0664L154.923 12.581C154.519 12.3956 154.116 12.241 153.651 12.1174C153.185 11.9937 152.751 11.9319 152.254 11.9319Z" fill="#273F57"/>
<path d="M165.1 21.6685H158.398V10.5098H165.1V12.0553H160.353V15.0845H164.821V16.5992H160.353V20.0921H165.1V21.6685Z" fill="#273F57"/>
<path d="M71.1161 33.4757C71.1161 32.7957 71.3023 32.2393 71.6436 31.7448C71.9849 31.2502 72.6055 30.7556 73.5053 30.261C72.9778 29.7047 72.6365 29.2101 72.4503 28.8392C72.2642 28.4373 72.1711 28.0355 72.1711 27.6336C72.1711 26.8609 72.4503 26.2427 73.0399 25.8099C73.6294 25.3772 74.4051 25.1299 75.398 25.1299C76.3599 25.1299 77.1045 25.3463 77.663 25.779C78.2215 26.2118 78.4698 26.7991 78.4698 27.5409C78.4698 28.1282 78.2836 28.6537 77.9113 29.1174C77.5389 29.581 76.9494 30.0756 76.0806 30.5392L78.8731 33.0739C79.3075 32.5175 79.6798 31.7448 79.9591 30.6938H81.9139C81.5415 32.1466 80.921 33.3212 80.1142 34.2176L82.5655 36.4432H80.1142L78.9041 35.3304C78.3456 35.7322 77.7561 36.0722 77.1356 36.2577C76.515 36.4741 75.8324 36.5668 75.0567 36.5668C73.8156 36.5668 72.8537 36.2886 72.14 35.7322C71.4574 35.2067 71.1161 34.434 71.1161 33.4757ZM75.1808 35.0522C76.1737 35.0522 77.0114 34.774 77.7251 34.2485L74.6223 31.3738C74.0638 31.7138 73.6604 32.0539 73.4432 32.3321C73.226 32.6412 73.1329 32.9812 73.1329 33.3521C73.1329 33.8467 73.3191 34.2485 73.6914 34.5576C74.0638 34.8976 74.5602 35.0522 75.1808 35.0522ZM73.9707 27.6955C73.9707 28.0046 74.0638 28.3137 74.2499 28.5919C74.4361 28.8701 74.6843 29.1792 74.9946 29.4883C75.6152 29.1483 76.0185 28.8701 76.2668 28.5919C76.515 28.3137 76.6391 28.0046 76.6391 27.6336C76.6391 27.2936 76.515 27.0463 76.2978 26.83C76.0496 26.6445 75.7393 26.5209 75.367 26.5209C74.9326 26.5209 74.5913 26.6136 74.343 26.83C74.0948 27.0463 73.9707 27.3555 73.9707 27.6955Z" fill="#273F57"/>
<path d="M92.9288 28.6544C92.9288 29.829 92.5254 30.6945 91.7187 31.3436C90.912 31.9928 89.7639 32.271 88.2746 32.271H87.0335V36.4439H85.1097V25.2852H88.5228C90.0122 25.2852 91.0981 25.5634 91.8428 26.1507C92.5565 26.707 92.9288 27.5416 92.9288 28.6544ZM87.0335 30.7254H88.0574C89.0503 30.7254 89.7639 30.5709 90.2294 30.2309C90.6948 29.8908 90.912 29.3963 90.912 28.7162C90.912 28.0671 90.6948 27.6035 90.2914 27.2943C89.8881 26.9852 89.2365 26.8307 88.3366 26.8307H87.0024V30.7254H87.0335Z" fill="#273F57"/>
<path d="M97.7381 31.9928V36.4439H95.8144V25.2852H99.1654C100.686 25.2852 101.834 25.5634 102.547 26.0888C103.292 26.6143 103.633 27.4489 103.633 28.5308C103.633 29.9217 102.858 30.9109 101.337 31.4982L104.688 36.4439H102.485L99.6619 31.9928H97.7381ZM97.7381 30.4781H99.0723C99.9721 30.4781 100.624 30.3236 101.027 30.0145C101.43 29.7054 101.648 29.2417 101.648 28.6235C101.648 28.0053 101.43 27.5416 100.996 27.2634C100.562 26.9852 99.9101 26.8616 99.0103 26.8616H97.7381V30.4781Z" fill="#273F57"/>
<path d="M113.966 36.4439H107.264V25.2852H113.966V26.8307H109.219V29.8599H113.687V31.3745H109.219V34.8674H113.966V36.4439Z" fill="#273F57"/>
<path d="M125.012 28.6544C125.012 29.829 124.608 30.6945 123.802 31.3436C122.995 31.9928 121.847 32.271 120.358 32.271H119.116V36.4439H117.193V25.2852H120.606C122.095 25.2852 123.181 25.5634 123.926 26.1507C124.639 26.707 125.012 27.5416 125.012 28.6544ZM119.116 30.7254H120.14C121.133 30.7254 121.847 30.5709 122.312 30.2309C122.778 29.8908 122.995 29.3963 122.995 28.7162C122.995 28.0671 122.778 27.6035 122.374 27.2943C121.971 26.9852 121.319 26.8307 120.42 26.8307H119.116V30.7254Z" fill="#273F57"/>
<path d="M134.661 36.4435L133.482 33.3525H128.952L127.804 36.4435H125.756L130.193 25.2539H132.303L136.74 36.4435H134.661ZM132.955 31.776L131.838 28.7468C131.745 28.5304 131.652 28.2213 131.497 27.7886C131.341 27.3558 131.248 27.0158 131.186 26.8303C131.031 27.4486 130.814 28.1286 130.535 28.8704L129.48 31.776H132.955Z" fill="#273F57"/>
<path d="M141.177 31.9928V36.4439H139.254V25.2852H142.605C144.125 25.2852 145.273 25.5634 145.987 26.0888C146.731 26.6143 147.073 27.4489 147.073 28.5308C147.073 29.9217 146.297 30.9109 144.777 31.4982L148.128 36.4439H145.925L143.101 31.9928H141.177ZM141.177 30.4781H142.512C143.411 30.4781 144.063 30.3236 144.466 30.0145C144.87 29.7054 145.087 29.2417 145.087 28.6235C145.087 28.0053 144.87 27.5416 144.435 27.2634C144.001 26.9852 143.349 26.8616 142.449 26.8616H141.177V30.4781Z" fill="#273F57"/>
<path d="M157.374 36.4439H150.672V25.2852H157.374V26.8307H152.627V29.8599H157.095V31.3745H152.627V34.8674H157.374V36.4439Z" fill="#273F57"/>
<path d="M170.22 30.756C170.22 32.6106 169.692 34.0016 168.606 34.9598C167.52 35.9181 165.969 36.4126 163.921 36.4126H160.601V25.2539H164.262C166.155 25.2539 167.613 25.7176 168.668 26.6758C169.692 27.6649 170.22 29.025 170.22 30.756ZM168.172 30.8178C168.172 28.1595 166.837 26.8303 164.2 26.8303H162.525V34.9289H163.89C166.744 34.898 168.172 33.538 168.172 30.8178Z" fill="#273F57"/>
<path d="M183.282 36.4439H180.924L175.091 27.5725H175.029L175.06 28.0671C175.122 29.0253 175.184 29.8908 175.184 30.6636V36.4439H173.415V25.2852H175.774L181.576 34.1256H181.638C181.638 34.0019 181.607 33.5692 181.576 32.8583C181.545 32.1164 181.514 31.56 181.514 31.1273V25.2852H183.282V36.4439Z" fill="#273F57"/>
<path d="M193.77 36.4439H187.068V25.2852H193.77V26.8307H189.022V29.8599H193.491V31.3745H189.022V34.8674H193.77V36.4439Z" fill="#273F57"/>
<path d="M203.978 33.4146C203.978 34.4037 203.606 35.1765 202.83 35.7329C202.054 36.2892 201.03 36.5674 199.696 36.5674C198.362 36.5674 197.276 36.382 196.407 35.9801V34.2491C196.935 34.4964 197.524 34.6819 198.114 34.8055C198.734 34.9292 199.293 35.0219 199.82 35.0219C200.596 35.0219 201.154 34.8983 201.527 34.6201C201.899 34.3419 202.085 33.9709 202.085 33.5073C202.085 33.1055 201.93 32.7345 201.589 32.4563C201.248 32.1781 200.565 31.8381 199.51 31.4363C198.424 31.0344 197.679 30.5399 197.214 30.0144C196.748 29.4889 196.562 28.8398 196.562 28.0979C196.562 27.1706 196.904 26.4288 197.617 25.9033C198.331 25.3778 199.262 25.0996 200.441 25.0996C201.589 25.0996 202.706 25.3469 203.823 25.8105L203.202 27.2943C202.147 26.8924 201.216 26.676 200.379 26.676C199.758 26.676 199.293 26.7997 198.951 27.047C198.641 27.2943 198.455 27.6343 198.455 28.067C198.455 28.3452 198.517 28.5925 198.641 28.8089C198.765 29.0253 198.982 29.2107 199.293 29.3962C199.603 29.5816 200.13 29.8289 200.906 30.1071C201.775 30.4471 202.427 30.7562 202.83 31.0654C203.233 31.3745 203.544 31.6836 203.73 32.0545C203.916 32.4254 203.978 32.8891 203.978 33.4146Z" fill="#273F57"/>
<path d="M214 33.4146C214 34.4037 213.628 35.1765 212.852 35.7329C212.076 36.2892 211.052 36.5674 209.718 36.5674C208.384 36.5674 207.298 36.382 206.429 35.9801V34.2491C206.957 34.4964 207.546 34.6819 208.136 34.8055C208.756 34.9292 209.315 35.0219 209.842 35.0219C210.618 35.0219 211.176 34.8983 211.549 34.6201C211.921 34.3419 212.107 33.9709 212.107 33.5073C212.107 33.1055 211.952 32.7345 211.611 32.4563C211.27 32.1781 210.587 31.8381 209.532 31.4363C208.446 31.0344 207.701 30.5399 207.236 30.0144C206.77 29.4889 206.584 28.8398 206.584 28.0979C206.584 27.1706 206.926 26.4288 207.639 25.9033C208.353 25.3778 209.284 25.0996 210.463 25.0996C211.611 25.0996 212.728 25.3469 213.845 25.8105L213.224 27.2943C212.169 26.8924 211.239 26.676 210.401 26.676C209.78 26.676 209.315 26.7997 208.973 27.047C208.663 27.2943 208.477 27.6343 208.477 28.067C208.477 28.3452 208.539 28.5925 208.663 28.8089C208.787 29.0253 209.005 29.2107 209.315 29.3962C209.625 29.5816 210.153 29.8289 210.928 30.1071C211.797 30.4471 212.449 30.7562 212.852 31.0654C213.255 31.3745 213.566 31.6836 213.752 32.0545C213.938 32.4254 214 32.8891 214 33.4146Z" fill="#273F57"/>
<path d="M75.398 2.62743C75.398 3.27656 75.1808 3.77113 74.7154 4.11115C74.281 4.45116 73.6294 4.63662 72.8227 4.63662H72.1401V6.92401H71.0851V0.803711H72.9468C73.7535 0.803711 74.3741 0.958264 74.7775 1.26737C75.2118 1.57648 75.398 2.04013 75.398 2.62743ZM72.1711 3.77113H72.7296C73.2881 3.77113 73.6604 3.6784 73.9397 3.49293C74.1879 3.30747 74.312 3.02927 74.312 2.65835C74.312 2.31833 74.1879 2.04014 73.9707 1.88558C73.7535 1.70012 73.3812 1.6383 72.9158 1.6383H72.1711V3.77113Z" fill="#273F57"/>
<path d="M81.3244 6.92367L80.6728 5.22359H78.1905L77.5389 6.92367H76.4219L78.8421 0.772461H79.9901L82.4103 6.92367H81.3244ZM80.3935 4.35809L79.773 2.68892C79.7419 2.56528 79.6799 2.41072 79.5868 2.16344C79.4937 1.91615 79.4627 1.7616 79.4316 1.63796C79.3386 1.97798 79.2455 2.3489 79.0903 2.75074L78.5008 4.35809H80.3935Z" fill="#273F57"/>
<path d="M85.4821 4.45082V6.89276H84.4272V0.772461H86.2578C87.0956 0.772461 87.7161 0.927012 88.1195 1.20521C88.5229 1.51431 88.709 1.94706 88.709 2.53436C88.709 3.30713 88.2746 3.83261 87.4369 4.17263L89.2675 6.89276H88.0885L86.5371 4.45082H85.4821ZM85.4821 3.64715H86.2268C86.7232 3.64715 87.0956 3.55442 87.3128 3.39986C87.53 3.2144 87.6541 2.96711 87.6541 2.6271C87.6541 2.28708 87.53 2.0398 87.2817 1.88524C87.0335 1.73069 86.6922 1.66887 86.1957 1.66887H85.4821V3.64715Z" fill="#273F57"/>
<path d="M93.5184 6.92401H92.4634V1.6692H90.5397V0.803711H95.4421V1.6692H93.5184V6.92401Z" fill="#273F57"/>
<path d="M102.889 6.92367H101.586L98.3897 2.0398H98.3587L98.3897 2.31799C98.4208 2.84347 98.4518 3.30713 98.4518 3.73988V6.92367H97.4899V0.803373H98.7931L101.989 5.65634H102.02C102.02 5.59452 101.989 5.34723 101.989 4.94539C101.958 4.54356 101.958 4.23445 101.958 3.98716V0.772461H102.92V6.92367H102.889Z" fill="#273F57"/>
<path d="M109.219 6.92401H105.526V0.803711H109.219V1.6383H106.612V3.30747H109.063V4.14205H106.612V6.05851H109.219V6.92401Z" fill="#273F57"/>
<path d="M112.632 4.45082V6.89276H111.577V0.772461H113.407C114.245 0.772461 114.866 0.927012 115.269 1.20521C115.672 1.51431 115.859 1.94706 115.859 2.53436C115.859 3.30713 115.424 3.83261 114.586 4.17263L116.417 6.89276H115.207L113.656 4.45082H112.632ZM112.632 3.64715H113.376C113.873 3.64715 114.245 3.55442 114.462 3.39986C114.679 3.2144 114.804 2.96711 114.804 2.6271C114.804 2.28708 114.679 2.0398 114.431 1.88524C114.183 1.73069 113.842 1.66887 113.345 1.66887H112.632V3.64715Z" fill="#273F57"/>
<path d="M122.405 5.2548C122.405 5.81119 122.188 6.21303 121.785 6.52213C121.381 6.83124 120.792 6.98579 120.047 6.98579C119.303 6.98579 118.713 6.89306 118.248 6.67669V5.71845C118.558 5.8421 118.868 5.96574 119.178 6.02756C119.52 6.08938 119.83 6.1512 120.109 6.1512C120.544 6.1512 120.854 6.08938 121.04 5.93483C121.226 5.78027 121.35 5.59481 121.35 5.31662C121.35 5.10024 121.257 4.88387 121.071 4.72932C120.885 4.57476 120.513 4.3893 119.923 4.17292C119.334 3.95655 118.899 3.67835 118.682 3.40016C118.434 3.12196 118.31 2.75104 118.31 2.3492C118.31 1.82372 118.496 1.42188 118.899 1.14368C119.272 0.865489 119.799 0.710938 120.451 0.710938C121.071 0.710938 121.692 0.834579 122.312 1.08186L121.971 1.88554C121.381 1.66917 120.885 1.54552 120.42 1.54552C120.078 1.54552 119.799 1.60734 119.644 1.7619C119.458 1.91645 119.365 2.10191 119.365 2.31829C119.365 2.47284 119.396 2.6274 119.458 2.72013C119.52 2.84377 119.644 2.9365 119.799 3.02923C119.954 3.12196 120.264 3.27652 120.668 3.43107C121.133 3.61654 121.506 3.802 121.723 3.95655C121.94 4.1111 122.095 4.29657 122.219 4.51294C122.343 4.72932 122.405 4.9766 122.405 5.2548Z" fill="#273F57"/>
<path d="M129.759 6.92401H128.704V4.17297H125.694V6.92401H124.639V0.803711H125.694V3.30747H128.704V0.803711H129.759V6.92401Z" fill="#273F57"/>
<path d="M132.427 6.92401V0.803711H133.482V6.92401H132.427Z" fill="#273F57"/>
<path d="M140.464 2.62743C140.464 3.27656 140.246 3.77113 139.781 4.11115C139.347 4.45116 138.695 4.63662 137.888 4.63662H137.206V6.92401H136.151V0.803711H138.012C138.819 0.803711 139.44 0.958264 139.843 1.26737C140.278 1.57648 140.464 2.04013 140.464 2.62743ZM137.237 3.77113H137.795C138.354 3.77113 138.726 3.6784 139.005 3.49293C139.254 3.30747 139.378 3.02927 139.378 2.65835C139.378 2.31833 139.254 2.04014 139.036 1.88558C138.819 1.70012 138.447 1.6383 137.981 1.6383H137.237V3.77113Z" fill="#273F57"/>
<path d="M147.29 6.92401H146.235V0.803711H149.896V1.6383H147.29V3.55475H149.741V4.42025H147.29V6.92401Z" fill="#273F57"/>
<path d="M157.87 3.83257C157.87 4.82171 157.591 5.59447 157.064 6.15086C156.536 6.70725 155.791 6.98545 154.83 6.98545C153.837 6.98545 153.092 6.70725 152.565 6.15086C152.037 5.59447 151.789 4.82171 151.789 3.80166C151.789 2.78161 152.068 2.00885 152.596 1.48337C153.123 0.926974 153.868 0.679688 154.861 0.679688C155.823 0.679688 156.567 0.957882 157.095 1.51427C157.622 2.07066 157.87 2.84343 157.87 3.83257ZM152.906 3.83257C152.906 4.57442 153.061 5.16173 153.402 5.56356C153.713 5.9654 154.209 6.15086 154.83 6.15086C155.45 6.15086 155.947 5.9654 156.257 5.56356C156.567 5.19264 156.753 4.60533 156.753 3.83257C156.753 3.09071 156.598 2.50341 156.288 2.13249C155.978 1.73065 155.481 1.54519 154.861 1.54519C154.209 1.54519 153.744 1.73065 153.402 2.13249C153.061 2.50341 152.906 3.09071 152.906 3.83257Z" fill="#273F57"/>
<path d="M161.283 4.45082V6.89276H160.228V0.772461H162.059C162.897 0.772461 163.517 0.927012 163.921 1.20521C164.324 1.51431 164.51 1.94706 164.51 2.53436C164.51 3.30713 164.076 3.83261 163.238 4.17263L165.069 6.89276H163.859L162.307 4.45082H161.283ZM161.283 3.64715H162.028C162.525 3.64715 162.897 3.55442 163.114 3.39986C163.331 3.2144 163.455 2.96711 163.455 2.6271C163.455 2.28708 163.331 2.0398 163.083 1.88524C162.835 1.73069 162.494 1.66887 161.997 1.66887H161.283V3.64715Z" fill="#273F57"/>
<defs>
<linearGradient id="paint0_linear_1934_4303" x1="0.961094" y1="21.4385" x2="54.9454" y2="21.4385" gradientUnits="userSpaceOnUse">
<stop offset="0.00132813" stop-color="#6FCBD2"/>
<stop offset="1" stop-color="#077E9B"/>
</linearGradient>
<linearGradient id="paint1_linear_1934_4303" x1="0.960976" y1="19.6974" x2="54.9455" y2="19.6974" gradientUnits="userSpaceOnUse">
<stop offset="0.00132813" stop-color="#6FCBD2"/>
<stop offset="1" stop-color="#077E9B"/>
</linearGradient>
<linearGradient id="paint2_linear_1934_4303" x1="0.960939" y1="17.9569" x2="54.9455" y2="17.9569" gradientUnits="userSpaceOnUse">
<stop offset="0.00132813" stop-color="#6FCBD2"/>
<stop offset="1" stop-color="#077E9B"/>
</linearGradient>
<linearGradient id="paint3_linear_1934_4303" x1="0.960977" y1="21.1062" x2="54.9455" y2="21.1062" gradientUnits="userSpaceOnUse">
<stop offset="0.00132813" stop-color="#6FCBD2"/>
<stop offset="1" stop-color="#077E9B"/>
</linearGradient>
<linearGradient id="paint4_linear_1934_4303" x1="0.961029" y1="20.0364" x2="54.9455" y2="20.0364" gradientUnits="userSpaceOnUse">
<stop offset="0.00132813" stop-color="#6FCBD2"/>
<stop offset="1" stop-color="#077E9B"/>
</linearGradient>
<linearGradient id="paint5_linear_1934_4303" x1="0.960861" y1="24.3636" x2="54.9456" y2="24.3636" gradientUnits="userSpaceOnUse">
<stop offset="0.00132813" stop-color="#6FCBD2"/>
<stop offset="1" stop-color="#077E9B"/>
</linearGradient>
<linearGradient id="paint6_linear_1934_4303" x1="0.960918" y1="23.3823" x2="54.9453" y2="23.3823" gradientUnits="userSpaceOnUse">
<stop offset="0.00132813" stop-color="#6FCBD2"/>
<stop offset="1" stop-color="#077E9B"/>
</linearGradient>
<linearGradient id="paint7_linear_1934_4303" x1="0.960833" y1="22.3822" x2="54.9454" y2="22.3822" gradientUnits="userSpaceOnUse">
<stop offset="0.00132813" stop-color="#6FCBD2"/>
<stop offset="1" stop-color="#077E9B"/>
</linearGradient>
<linearGradient id="paint8_linear_1934_4303" x1="0.960833" y1="24.1788" x2="54.9456" y2="24.1788" gradientUnits="userSpaceOnUse">
<stop offset="0.00132813" stop-color="#6FCBD2"/>
<stop offset="1" stop-color="#077E9B"/>
</linearGradient>
<linearGradient id="paint9_linear_1934_4303" x1="0.960802" y1="22.4402" x2="54.9456" y2="22.4402" gradientUnits="userSpaceOnUse">
<stop offset="0.00132813" stop-color="#6FCBD2"/>
<stop offset="1" stop-color="#077E9B"/>
</linearGradient>
<linearGradient id="paint10_linear_1934_4303" x1="0.960974" y1="23.2176" x2="54.9454" y2="23.2176" gradientUnits="userSpaceOnUse">
<stop offset="0.00132813" stop-color="#6FCBD2"/>
<stop offset="1" stop-color="#077E9B"/>
</linearGradient>
<linearGradient id="paint11_linear_1934_4303" x1="0.961005" y1="23.2173" x2="54.9455" y2="23.2173" gradientUnits="userSpaceOnUse">
<stop offset="0.00132813" stop-color="#6FCBD2"/>
<stop offset="1" stop-color="#077E9B"/>
</linearGradient>
<linearGradient id="paint12_linear_1934_4303" x1="0.960912" y1="23.2169" x2="54.9454" y2="23.2169" gradientUnits="userSpaceOnUse">
<stop offset="0.00132813" stop-color="#6FCBD2"/>
<stop offset="1" stop-color="#077E9B"/>
</linearGradient>
</defs>
</svg>
