<svg width="224" height="37" viewBox="0 0 224 37" fill="none" xmlns="http://www.w3.org/2000/svg">
<path fill-rule="evenodd" clip-rule="evenodd" d="M79.2219 16.6736C79.7943 16.8421 80.3289 17.0808 80.8263 17.3892C81.3237 17.6976 81.736 18.1117 82.0629 18.6303C82.3903 19.1497 82.5535 19.8437 82.5535 20.7137C82.5535 21.5411 82.4035 22.2632 82.1039 22.8804C81.8042 23.4982 81.3987 24.0101 80.8877 24.4168C80.3767 24.8235 79.7838 25.1249 79.1096 25.3209C78.4353 25.5175 77.7224 25.6158 76.9736 25.6158C76.033 25.6158 75.1614 25.4683 74.3572 25.174C73.5529 24.8792 72.8036 24.4023 72.1089 23.7429L74.3776 21.1765C74.7045 21.6253 75.1169 21.9726 75.6143 22.2173C76.1112 22.4635 76.6258 22.5861 77.1573 22.5861C77.416 22.5861 77.6788 22.5543 77.9443 22.4911C78.2098 22.4284 78.4485 22.3334 78.6599 22.207C78.8713 22.0807 79.0414 21.9201 79.1709 21.7236C79.3001 21.527 79.3651 21.2959 79.3651 21.0286C79.3651 20.5799 79.1978 20.2265 78.8641 19.9663C78.5303 19.7071 78.1112 19.4857 77.607 19.3037C77.1028 19.1216 76.5576 18.9391 75.9721 18.7566C75.386 18.5746 74.8404 18.3289 74.3367 18.0205C73.8325 17.7116 73.4133 17.3049 73.0796 16.8C72.7454 16.2951 72.579 15.6287 72.579 14.8013C72.579 14.002 72.7323 13.3005 73.0387 12.6972C73.3451 12.0945 73.7543 11.5895 74.2653 11.1819C74.7763 10.7757 75.3656 10.4706 76.033 10.267C76.7009 10.0639 77.3892 9.96191 78.0975 9.96191C78.915 9.96191 79.7051 10.0812 80.4685 10.3199C81.2318 10.5581 81.9202 10.9582 82.533 11.5189L80.3462 13.9804C80.0871 13.644 79.7361 13.395 79.2932 13.2335C78.8504 13.0726 78.4317 12.9921 78.0366 12.9921C77.8047 12.9921 77.566 13.0201 77.321 13.0758C77.0755 13.132 76.8441 13.22 76.6258 13.3388C76.4081 13.4582 76.2307 13.6163 76.0944 13.812C75.958 14.0085 75.8902 14.2472 75.8902 14.5275C75.8902 14.9768 76.0534 15.3203 76.3808 15.5585C76.7077 15.7976 77.1196 16.0002 77.6174 16.1687C78.1143 16.3372 78.6495 16.5052 79.2219 16.6736ZM58.4343 17.5469C58.9657 16.8107 59.2317 15.9164 59.2317 14.8644C59.2317 13.9945 59.0849 13.2686 58.7925 12.6865C58.4988 12.1048 58.1037 11.6419 57.6064 11.298C57.109 10.9545 56.5302 10.6891 55.8692 10.5417C55.2081 10.3943 54.5098 10.3012 53.7737 10.3012H48.3834V25.2765H51.5659V19.1927H52.9362L55.961 25.2765H59.7837L56.1042 18.9658C57.1267 18.7697 57.9028 18.283 58.4343 17.5469ZM55.665 15.7901C55.4945 16.0147 55.2794 16.179 55.0212 16.2847C54.797 16.3752 54.5509 16.3897 54.2815 16.4055L54.2814 16.4055L54.2813 16.4055L54.2812 16.4055C54.2387 16.408 54.1956 16.4105 54.1519 16.4134C53.9605 16.426 53.7754 16.4134 53.5964 16.4011H53.5964H53.5964H53.5964H53.5964H53.5964H53.5964H53.5964H53.5964H53.5963C53.4757 16.3929 53.3578 16.3849 53.2426 16.3849H51.5659V13.109H53.4472C53.7332 13.109 54.026 13.1348 54.3256 13.1764C54.6257 13.2185 54.8916 13.3018 55.123 13.4207C55.3544 13.5405 55.5454 13.7132 55.6954 13.9373C55.845 14.162 55.92 14.4638 55.92 14.8424C55.92 15.25 55.835 15.5659 55.665 15.7901ZM64.296 19.1928H70.661V15.9169H64.296V13.577H70.661V10.3012H61.1134V25.2765H71.1156V22.0006H64.296V19.1928ZM97.0052 12.0767C96.3105 11.3963 95.4863 10.874 94.5324 10.509C93.5781 10.1444 92.5356 9.96191 91.4049 9.96191C90.2738 9.96191 89.2313 10.1444 88.2774 10.509C87.3231 10.874 86.4993 11.3963 85.8041 12.0767C85.109 12.7571 84.5675 13.5808 84.1788 14.549C83.791 15.5163 83.5964 16.5969 83.5964 17.7888C83.5964 18.9812 83.791 20.0613 84.1788 21.0286C84.5675 21.9969 85.109 22.821 85.8041 23.5014C86.4993 24.1819 87.3231 24.7041 88.2774 25.0687C89.2313 25.4332 90.2738 25.6158 91.4049 25.6158C92.5356 25.6158 93.5781 25.4332 94.5324 25.0687C95.4863 24.7041 96.3105 24.1819 97.0052 23.5014C97.7009 22.821 98.2423 21.9969 98.6311 21.0286C99.0189 20.0613 99.2135 18.9812 99.2135 17.7888C99.2135 16.5969 99.0189 15.5163 98.6311 14.549C98.2423 13.5808 97.7009 12.7571 97.0052 12.0767ZM94.6754 21.229C95.0705 20.8012 95.3737 20.2963 95.5852 19.7141C95.7961 19.1324 95.902 18.4908 95.902 17.7889C95.902 17.1019 95.7961 16.4635 95.5852 15.8744C95.3737 15.2852 95.0705 14.777 94.6754 14.3488C94.2803 13.921 93.8066 13.5883 93.2546 13.3492C92.7027 13.111 92.0862 12.9921 91.4051 12.9921C90.7236 12.9921 90.1071 13.111 89.5552 13.3492C89.0033 13.5883 88.53 13.921 88.1344 14.3488C87.7393 14.777 87.4361 15.2852 87.2251 15.8744C87.0137 16.4635 86.9082 17.1019 86.9082 17.7889C86.9082 18.4908 87.0137 19.1324 87.2251 19.7141C87.4361 20.2963 87.7393 20.8012 88.1344 21.229C88.53 21.6567 89.0033 21.9899 89.5552 22.2286C90.1071 22.4672 90.7236 22.5861 91.4051 22.5861C92.0862 22.5861 92.7027 22.4672 93.2546 22.2286C93.8066 21.9899 94.2803 21.6567 94.6754 21.229ZM109.587 20.6505C109.73 20.2579 109.761 19.8297 109.761 19.3669V10.3012H112.943V19.4932C112.943 20.3768 112.856 21.1906 112.597 21.9337C112.339 22.6773 111.996 23.3227 111.485 23.8697C110.974 24.4168 110.334 24.8445 109.571 25.1529C108.808 25.4613 107.924 25.6158 106.929 25.6158C105.921 25.6158 105.025 25.4613 104.262 25.1529C103.499 24.8445 102.842 24.4168 102.331 23.8697C101.82 23.3227 101.395 22.6773 101.136 21.9337C100.877 21.1906 100.668 20.3768 100.668 19.4932V10.3012H103.851V19.3669C103.851 19.8297 104.004 20.2579 104.147 20.6505C104.29 21.0432 104.574 21.3834 104.833 21.6707C105.092 21.9585 105.4 22.1827 105.761 22.3441C106.122 22.5056 106.512 22.5861 106.934 22.5861C107.356 22.5861 107.74 22.5056 108.094 22.3441C108.448 22.1827 108.745 21.9585 109.004 21.6707C109.263 21.3834 109.444 21.0432 109.587 20.6505ZM125.684 17.5469C126.215 16.8108 126.481 15.9165 126.481 14.8644C126.481 13.9945 126.334 13.2686 126.042 12.6865C125.748 12.1048 125.353 11.642 124.856 11.298C124.358 10.9545 123.779 10.6892 123.118 10.5417C122.457 10.3943 121.759 10.3012 121.023 10.3012H115.217V25.2765H118.4V19.1928H120.185L123.21 25.2765H127.033L123.353 18.9658C124.376 18.7697 125.152 18.283 125.684 17.5469ZM122.271 16.2848C122.529 16.179 122.744 16.0148 122.914 15.7901C123.084 15.566 123.169 15.2501 123.169 14.8425C123.169 14.4639 123.094 14.1621 122.945 13.9374C122.795 13.7133 122.604 13.5406 122.372 13.4208C122.141 13.3019 121.875 13.2186 121.575 13.1765C121.275 13.1348 120.983 13.1091 120.697 13.1091H118.4V16.3849H120.492C120.607 16.3849 120.725 16.393 120.846 16.4012C121.025 16.4134 121.21 16.4261 121.402 16.4135C121.445 16.4106 121.489 16.4081 121.531 16.4056C121.8 16.3898 122.046 16.3753 122.271 16.2848ZM134.74 22.5861C135.394 22.5861 135.973 22.4462 136.477 22.1649C136.981 21.8846 137.397 21.492 137.724 20.987L140.381 23.0279C139.768 23.9119 138.991 24.5638 138.051 24.985C137.111 25.4052 136.143 25.6158 135.148 25.6158C134.017 25.6158 132.975 25.4333 132.021 25.0687C131.067 24.7042 130.243 24.1819 129.548 23.5015C128.853 22.821 128.311 21.9969 127.922 21.0287C127.535 20.0614 127.34 18.9813 127.34 17.7889C127.34 16.5969 127.535 15.5164 127.922 14.5491C128.311 13.5808 128.853 12.7572 129.548 12.0767C130.243 11.3963 131.067 10.874 132.021 10.509C132.975 10.1445 134.017 9.96195 135.148 9.96195C135.557 9.96195 135.983 10.0008 136.426 10.0775C136.868 10.1548 137.305 10.2778 137.734 10.4458C138.164 10.6138 138.576 10.8389 138.971 11.1193C139.366 11.4 139.72 11.7435 140.034 12.1502L137.581 14.2121C137.267 13.8195 136.882 13.5181 136.426 13.3071C135.969 13.0969 135.441 12.9921 134.842 12.9921C134.242 12.9921 133.687 13.111 133.176 13.3492C132.665 13.5883 132.222 13.921 131.847 14.3488C131.472 14.777 131.179 15.2852 130.968 15.8744C130.757 16.4636 130.652 17.1019 130.652 17.7889C130.652 18.4908 130.757 19.1324 130.968 19.7141C131.179 20.2963 131.469 20.8012 131.837 21.229C132.205 21.6567 132.637 21.9899 133.135 22.2286C133.632 22.4672 134.167 22.5861 134.74 22.5861ZM144.769 19.1928H151.134V15.9169H144.769V13.5771H151.588V10.3012H141.586V25.2765H152.043V22.0007H144.769V19.1928ZM167.443 23.4046L171.04 10.3012H172.43L168.219 25.2765H166.564L162.905 12.1731H162.864L159.205 25.2765H157.549L153.339 10.3012H154.729L158.326 23.4046H158.367L162.026 10.3012H163.743L167.402 23.4046H167.443ZM178.398 10.3012L172.082 25.2765H173.493L175.128 21.0647H182.793L184.367 25.2765H185.88L179.788 10.3012H178.398ZM179.032 11.9659L175.659 20.1288H182.303L179.032 11.9659ZM190.689 11.7052H185.688V10.3012H197.054V11.7052H192.053V25.2765H190.689V11.7052ZM208.508 23.0803C208.168 23.3677 207.81 23.6063 207.435 23.7959C207.061 23.9854 206.676 24.1258 206.281 24.2166C205.886 24.3078 205.504 24.3532 205.136 24.3532C204.196 24.3532 203.348 24.1852 202.591 23.8483C201.835 23.5118 201.191 23.049 200.66 22.4598C200.128 21.8706 199.719 21.1766 199.433 20.3768C199.147 19.5775 199.004 18.7146 199.004 17.7889C199.004 16.8632 199.147 16.0003 199.433 15.201C199.719 14.4012 200.128 13.7072 200.66 13.118C201.191 12.5288 201.835 12.066 202.591 11.7291C203.348 11.393 204.196 11.2241 205.136 11.2241C205.871 11.2241 206.59 11.386 207.293 11.708C207.994 12.0314 208.57 12.5433 209.019 13.2444L210.123 12.2972C209.483 11.4558 208.737 10.8563 207.885 10.4983C207.034 10.1407 206.117 9.96197 205.136 9.96197C204.032 9.96197 203.02 10.1585 202.101 10.5512C201.181 10.9443 200.394 11.4876 199.74 12.1816C199.086 12.8761 198.575 13.7002 198.207 14.6539C197.839 15.6077 197.655 16.6526 197.655 17.7889C197.655 18.9247 197.839 19.9739 198.207 20.9342C198.575 21.8954 199.086 22.7228 199.74 23.4173C200.394 24.1113 201.181 24.6518 202.101 25.0374C203.02 25.4225 204.032 25.6158 205.136 25.6158C206.199 25.6158 207.187 25.4052 208.1 24.985C209.013 24.5638 209.817 23.8698 210.512 22.9015L209.408 22.0391C209.149 22.4462 208.849 22.793 208.508 23.0803ZM222.058 16.8529V10.3012H223.422V25.2765H222.058V18.2569H213.875V25.2765H212.511V10.3012H213.875V16.8529H222.058Z" fill="#393F44"/>
<path fill-rule="evenodd" clip-rule="evenodd" d="M26.8435 8.24768L22.0318 13.0588L13.7847 4.81115L18.5963 0L26.8435 8.24768ZM0 18.4374L11.9072 6.5294L20.3137 14.9351L8.40568 26.8431L0 18.4374ZM25.0921 30.4706L37.0001 18.5626L28.5945 10.1569L16.6864 22.0649L25.0921 30.4706ZM10.1575 28.7523L14.9686 23.9412L23.2163 32.1888L18.4052 37L10.1575 28.7523Z" fill="#C32D7B"/>
</svg>
