<svg width="301" height="305" viewBox="0 0 301 305" fill="none" xmlns="http://www.w3.org/2000/svg">
<path fill-rule="evenodd" clip-rule="evenodd" d="M143.123 20.6796C178.575 12.1018 223.19 -14.3371 250.181 10.1382C279.785 36.9835 250.201 88.8425 260.742 127.336C267.786 153.06 303.876 168.567 300.816 195.057C297.681 222.204 267.886 237.79 246.076 254.333C229.93 266.579 209.81 270.029 191.239 278.168C174.898 285.329 160.609 295.875 143.123 299.451C122.842 303.598 100.943 309.003 82.0825 300.49C62.8853 291.825 56.6779 268.138 41.4867 253.575C19.2711 232.278 -18.1545 224.211 -27.8989 195.057C-37.458 166.458 -23.3467 133.977 -6.95392 108.649C11.3547 74.2609 36.8224 70.5555 62.3727 55.5789C88.1016 40.4977 114.12 27.6969 143.123 20.6796Z" fill="#F4F7F3"/>
</svg>
