<svg width="188" height="37" viewBox="0 0 188 37" fill="none" xmlns="http://www.w3.org/2000/svg">
<g clip-path="url(#clip0_1934_4194)">
<path d="M176.231 12.4629V9.30615H175.052V8.88379H177.888V9.30615H176.704V12.4629H176.231ZM175.305 18.4629V14.8838H176.018L176.865 17.418C176.944 17.654 177.001 17.8306 177.036 17.9478C177.077 17.8175 177.141 17.6263 177.227 17.374L178.084 14.8838H178.721V18.4629H178.264V15.4673L177.224 18.4629H176.797L175.762 15.416V18.4629H175.305Z" fill="black"/>
<path d="M22.0843 15.1259H23.5944V13.2643C23.5944 13.2643 24.0191 10.2857 26.8504 10.1926C29.7289 10.2392 30.1064 13.2643 30.1064 13.2643V15.1259H31.6165V13.2643C31.6165 13.2643 32.0412 10.2857 34.8725 10.1926V7.91211H10.7119V10.2392C13.5904 10.2857 13.9679 13.3109 13.9679 13.3109V15.1725H15.4779V13.3109C15.4779 13.3109 15.9026 10.3322 18.7339 10.2392C21.6125 10.2857 21.99 13.3109 21.99 13.3109L22.0843 15.1259Z" fill="#0092C3"/>
<path d="M38.8835 15.126H6.74799V16.7084C9.48493 16.7549 9.86244 18.9889 9.86244 18.9889V20.3386H11.75V18.9889C11.75 18.9889 12.1275 16.7549 14.8645 16.7084C17.6014 16.7549 17.9789 18.9889 17.9789 18.9889V20.3386H19.6777V18.9889C19.6777 18.9889 20.0552 16.7549 22.7922 16.7084C25.5291 16.7549 25.9066 18.9889 25.9066 18.9889V20.3386H27.6054V18.9889C27.6054 18.9889 27.9829 16.7549 30.7199 16.7084C33.4568 16.7549 33.8343 18.9889 33.8343 18.9889V20.3386H35.6747V18.9889C35.6747 18.9889 36.0522 16.7549 38.7892 16.7084V15.126H38.8835Z" fill="#0092C3"/>
<path d="M39.9688 20.3389V21.6886C37.6094 21.7351 37.2791 23.6433 37.2791 23.6433V24.8068H35.6747V23.6433C35.6747 23.6433 35.3444 21.7351 32.9849 21.6886C30.6255 21.7351 30.2952 23.6433 30.2952 23.6433V24.8068H28.7851V23.6433C28.7851 23.6433 28.4548 21.7351 26.0954 21.6886C23.7359 21.7351 23.4056 23.6433 23.4056 23.6433V24.8068H21.9899V23.6433C21.9899 23.6433 21.6596 21.7351 19.3002 21.6886C16.9407 21.7351 16.6104 23.6433 16.6104 23.6433V24.8068H15.1948V23.6433C15.1948 23.6433 14.8644 21.7351 12.505 21.6886C10.1456 21.7351 9.81523 23.6433 9.81523 23.6433V24.8068H8.21082V23.6433C8.21082 23.6433 7.88049 21.7351 5.52106 21.6886V20.3389H39.9688Z" fill="#0092C3"/>
<path d="M61.1566 24.202C60.9679 24.202 60.6847 24.202 60.4016 24.0624C60.1657 23.9693 59.5522 23.7832 58.75 21.7354C57.8534 19.3618 55.9659 14.1492 54.8805 11.031C54.4086 9.77436 54.0783 8.84354 53.9839 8.61084C53.748 7.95927 53.6536 7.72656 53.3705 7.72656C53.0874 7.72656 52.993 7.95927 52.757 8.70392L48.1325 22.2473C47.755 23.3643 47.3775 24.0624 46.5753 24.1555C46.4337 24.1555 46.1506 24.202 46.009 24.202C45.7731 24.202 45.6315 24.3417 45.6315 24.5278C45.6315 24.9001 46.0562 24.9002 46.1978 24.9002C46.8584 24.9002 47.5663 24.8536 48.0382 24.8536C48.2741 24.8536 48.4157 24.8536 48.51 24.8536C48.6044 24.8536 48.7932 24.8536 49.0291 24.8536C49.3594 24.8536 49.8313 24.9002 50.1145 24.9002C50.5392 24.9002 50.5863 24.6674 50.5863 24.5278C50.5863 24.4347 50.5392 24.202 50.2088 24.202H50.0201C49.7841 24.202 49.4066 24.0624 49.4066 23.7366C49.4066 23.3643 49.501 22.8524 49.6898 22.3404L50.9167 18.4775C50.9167 18.431 50.9639 18.431 50.9639 18.431H55.3996L57.2872 23.7832C57.3815 24.0159 57.2872 24.1555 57.2872 24.1555C57.0512 24.202 57.004 24.3882 57.004 24.4813C57.004 24.7605 57.2872 24.7605 57.7119 24.8071H57.8062C58.7028 24.8536 59.8825 24.8536 61.0151 24.8536C61.5341 24.8536 61.5813 24.6209 61.5813 24.4813C61.5341 24.3882 61.487 24.202 61.1566 24.202ZM54.9277 17.314H51.247L52.993 11.5429L54.9277 17.314ZM55.0221 17.314V17.5001V17.314Z" fill="#231F20"/>
<path d="M91.5462 27.18C91.4518 27.18 91.3574 27.2265 91.2631 27.2731L91.1687 27.3196C89.753 27.9247 88.1486 28.1574 87.2048 28.1574C84.6566 28.1574 81.7309 27.2731 78.6637 25.5976L74.6998 23.4102C75.5492 22.7586 78.1918 20.3385 78.1918 16.1033C78.1918 11.1234 74.8886 7.77246 69.9809 7.77246C66.7249 7.77246 64.743 9.40139 63.7048 10.7976C62.4779 12.38 61.7701 14.4743 61.7701 16.4756C61.7701 20.6643 64.3183 25.2253 69.9337 25.2253C71.0191 25.2253 72.3404 24.8995 73.1426 24.5272L76.493 26.4819C79.9378 28.5297 82.5803 29.414 84.987 29.414C87.252 29.414 89.4699 28.902 91.5462 27.8781C91.5934 27.8316 91.7821 27.7385 91.7821 27.5058C91.8293 27.3196 91.6878 27.18 91.5462 27.18ZM75.8795 16.7083C75.8795 23.6429 71.3022 24.0152 70.4056 24.0152C66.6777 24.0152 64.0351 20.6643 64.0351 15.8706C64.0351 11.5423 66.253 8.88944 69.8394 8.88944C72.7651 8.8429 75.8795 11.3096 75.8795 16.7083Z" fill="#231F20"/>
<path d="M95.1325 8.05207C94.7078 8.05207 94.1416 8.09861 93.764 8.09861C93.5753 8.09861 93.4809 8.09861 93.4337 8.09861C93.3865 8.09861 93.2922 8.09861 93.1506 8.09861C92.7259 8.09861 91.9237 8.05207 91.263 8.05207C90.9327 8.05207 90.744 8.19169 90.744 8.37785C90.744 8.56402 90.8855 8.70364 91.0743 8.70364C91.263 8.70364 91.5934 8.70364 91.7349 8.75018C92.3012 8.8898 92.4428 9.12251 92.49 9.82062C92.5371 10.5187 92.5371 11.1238 92.5371 14.5212V17.2206C92.5371 19.8269 92.2068 21.4093 91.4046 22.4332C90.6968 23.364 89.5171 23.9225 88.3373 23.9225C87.2048 23.9225 86.3554 23.7363 85.3644 22.759C84.6094 22.0143 83.9016 20.8043 83.9016 17.4999V14.4282C83.9016 11.0307 83.9016 10.4257 83.9488 9.72754C83.996 8.8898 84.1847 8.70364 84.5622 8.6571C84.7982 8.61056 84.8926 8.61056 85.0341 8.61056C85.2229 8.61056 85.3644 8.47093 85.3644 8.28477C85.3644 8.05207 85.1757 7.95898 84.8454 7.95898C84.4679 7.95898 83.8072 8.00553 83.3353 8.00553C83.0994 8.00553 82.9106 8.00553 82.8163 8.00553C82.7691 8.00553 82.6275 8.00553 82.3916 8.00553C81.9197 8.00553 81.1175 7.95898 80.4568 7.95898C80.1265 7.95898 79.9377 8.09861 79.9377 8.28477C79.9377 8.47093 80.0793 8.61056 80.2681 8.61056C80.4568 8.61056 80.7871 8.61056 80.9287 8.6571C81.495 8.79672 81.6365 9.02942 81.6837 9.72754C81.7309 10.4257 81.7309 11.0307 81.7309 14.4282V17.5929C81.7309 21.1301 82.7219 22.5728 83.5713 23.4571C84.9398 24.8533 86.8745 25.0395 87.9126 25.0395C88.998 25.0395 90.6968 24.8533 92.254 23.364C93.9528 21.7351 94.1887 18.9426 94.1887 16.7087V14.3816C94.1887 10.9841 94.1887 10.3791 94.2359 9.681C94.2831 8.93634 94.4247 8.70364 94.8494 8.61056C95.0853 8.56402 95.1797 8.56402 95.3213 8.56402C95.51 8.56402 95.6516 8.42439 95.6516 8.23823C95.6516 8.19169 95.4628 8.05207 95.1325 8.05207Z" fill="#231F20"/>
<path d="M106.788 21.5951C106.505 21.5951 106.458 21.8744 106.411 22.0605C106.269 22.8983 106.08 23.2706 105.608 23.5033C105.089 23.736 104.24 23.736 103.721 23.736C101.739 23.736 101.597 23.4568 101.503 22.1071C101.503 21.7813 101.503 20.3851 101.503 19.3612C101.503 18.9423 101.503 18.6165 101.503 18.3838V16.4756C101.928 16.4756 103.862 16.5222 104.382 16.5687C105.042 16.6618 105.231 16.8945 105.278 17.2203C105.372 17.4995 105.372 17.6857 105.372 17.8719C105.372 18.1046 105.514 18.2442 105.703 18.2442C106.033 18.2442 106.033 17.8719 106.033 17.6392C106.033 17.4995 106.08 16.7083 106.127 16.2429C106.175 15.7775 106.222 15.4983 106.269 15.3121C106.316 15.1725 106.316 15.0794 106.316 15.0329C106.316 14.7071 106.08 14.7071 106.033 14.7071C105.892 14.7071 105.797 14.8467 105.608 15.0329L105.561 15.0794C105.42 15.2656 105.184 15.2656 104.712 15.3121C104.382 15.3587 102.871 15.3587 101.55 15.3587V15.3121V9.30834V9.26179C101.975 9.26179 103.957 9.30834 104.287 9.30834C105.372 9.44796 105.514 9.68066 105.608 9.95991C105.703 10.1926 105.703 10.5184 105.703 10.658C105.703 11.0769 105.939 11.1234 106.033 11.1234C106.175 11.1234 106.316 10.9838 106.363 10.7511C106.411 10.5649 106.411 10.0995 106.458 9.77374C106.458 9.58758 106.458 9.40142 106.505 9.30834C106.552 8.93601 106.599 8.74985 106.647 8.56368C106.694 8.42406 106.694 8.33098 106.694 8.28444C106.694 7.95865 106.505 7.91211 106.458 7.91211C106.363 7.91211 106.269 7.95865 106.222 8.00519C106.175 8.00519 106.175 8.05173 106.127 8.05173C105.986 8.09827 105.703 8.14481 105.278 8.14481C104.806 8.14481 100.795 8.14481 100.606 8.14481L99.757 8.09827C99.2851 8.09827 98.7661 8.09827 98.2942 8.09827C97.9638 8.09827 97.7751 8.2379 97.7751 8.42406C97.7751 8.61022 97.9167 8.74984 98.1054 8.74984C98.2942 8.74984 98.6245 8.74985 98.7661 8.79639C99.3323 8.93601 99.4739 9.16871 99.5211 9.86683C99.5683 10.5649 99.5683 11.17 99.5683 14.5675V18.3838C99.5683 20.4316 99.5683 22.2002 99.4739 23.0844C99.3795 23.736 99.2851 24.0618 99.002 24.1549C98.7661 24.2014 98.5773 24.248 98.4357 24.248C98.1998 24.248 98.1054 24.3876 98.1054 24.5737C98.1054 24.8064 98.2942 24.9461 98.6245 24.9461C98.7661 24.9461 98.9548 24.9461 99.1436 24.9461C99.3795 24.9461 99.6154 24.8995 99.8042 24.8995C100.229 24.8995 100.559 24.8995 100.606 24.8995C100.89 24.8995 101.314 24.8995 102.211 24.9461H102.683C103.438 24.9461 104.429 24.9926 105.703 24.9926C106.505 24.9926 106.788 24.9926 106.977 24.2945C107.071 23.8291 107.26 22.3398 107.26 22.1536C107.118 21.9209 107.118 21.5951 106.788 21.5951Z" fill="#231F20"/>
<path d="M116.132 8.05181H115.754C114.905 8.05181 114.008 8.09835 113.489 8.09835C113.253 8.09835 113.064 8.09835 113.017 8.09835C112.97 8.09835 112.875 8.09835 112.734 8.09835C112.309 8.09835 111.365 8.05181 110.705 8.05181C110.374 8.05181 110.186 8.19143 110.186 8.3776C110.186 8.56376 110.327 8.70338 110.516 8.70338C110.705 8.70338 111.035 8.70338 111.177 8.74992C111.696 8.88955 111.885 9.12225 111.932 9.82036C111.979 10.5185 111.979 11.1235 111.979 14.521V18.3373C111.979 20.3851 111.979 22.1537 111.885 23.038C111.79 23.6895 111.696 24.0153 111.413 24.1084C111.177 24.155 110.988 24.2015 110.846 24.2015C110.61 24.2015 110.516 24.3411 110.516 24.5273C110.516 24.76 110.705 24.8996 111.035 24.8996C111.177 24.8996 111.365 24.8996 111.554 24.8996C111.79 24.8996 112.026 24.8531 112.215 24.8531C112.64 24.8531 112.97 24.8531 113.017 24.8531C113.064 24.8531 113.253 24.8531 113.536 24.8996C113.819 24.9461 114.244 24.9461 114.669 24.9927C115.848 25.0858 116.792 25.1323 117.547 25.1323C120.19 25.1323 122.36 24.248 123.87 22.5726C125.286 20.9436 126.136 18.6631 126.136 16.3361C126.136 13.5436 125.05 11.7285 124.106 10.7046C121.747 8.00527 118.255 8.05181 116.132 8.05181ZM117.594 23.9688C115.282 23.9688 114.48 23.5499 114.244 23.1776C114.15 23.038 114.102 22.526 114.055 21.5952C114.055 21.1763 114.008 19.2216 114.008 16.8946V14.1952C114.008 12.5663 114.008 10.2858 114.008 9.54112C114.008 9.35495 114.055 9.30841 114.15 9.26187C114.244 9.21533 114.905 9.12225 115.376 9.12225C118.019 9.12225 120.143 9.54112 121.936 11.5424C122.644 12.3336 123.87 14.1021 123.87 16.8946C123.87 18.9889 123.257 20.9902 122.266 21.9675C121.134 23.2707 119.435 23.9688 117.594 23.9688Z" fill="#231F20"/>
<path d="M142.935 8.05207C142.51 8.05207 141.944 8.09861 141.566 8.09861C141.378 8.09861 141.283 8.09861 141.236 8.09861C141.189 8.09861 141.094 8.09861 140.953 8.09861C140.528 8.09861 139.726 8.05207 139.065 8.05207C138.735 8.05207 138.546 8.19169 138.546 8.37785C138.546 8.56402 138.688 8.70364 138.877 8.70364C139.065 8.70364 139.396 8.70364 139.537 8.75018C140.056 8.8898 140.245 9.12251 140.292 9.82062C140.339 10.5187 140.339 11.1238 140.339 14.5212V17.2206C140.339 19.8269 140.009 21.4093 139.207 22.4332C138.499 23.364 137.319 23.9225 136.14 23.9225C135.007 23.9225 134.158 23.7363 133.167 22.759C132.412 22.0143 131.704 20.8043 131.704 17.4999V14.4282C131.704 11.0307 131.704 10.4257 131.751 9.72754C131.798 8.8898 131.987 8.70364 132.364 8.6571C132.6 8.61056 132.695 8.61056 132.836 8.61056C133.025 8.61056 133.167 8.47093 133.167 8.28477C133.167 8.05207 132.978 7.95898 132.648 7.95898C132.27 7.95898 131.609 8.00553 131.138 8.00553C130.902 8.00553 130.713 8.00553 130.618 8.00553C130.571 8.00553 130.43 8.00553 130.194 8.00553C129.722 8.00553 128.92 7.95898 128.259 7.95898C127.929 7.95898 127.74 8.09861 127.74 8.28477C127.74 8.47093 127.882 8.61056 128.07 8.61056C128.259 8.61056 128.589 8.61056 128.731 8.6571C129.25 8.79672 129.439 9.02942 129.486 9.72754C129.533 10.4257 129.533 11.0307 129.533 14.4282V17.5929C129.533 21.1301 130.524 22.5728 131.374 23.4571C132.742 24.8533 134.677 25.0395 135.715 25.0395C136.8 25.0395 138.499 24.8533 140.056 23.364C141.755 21.7351 141.991 18.9426 141.991 16.7087V14.3816C141.991 10.9841 141.991 10.3791 142.038 9.681C142.085 8.93634 142.227 8.70364 142.652 8.61056C142.888 8.56402 142.982 8.56402 143.124 8.56402C143.312 8.56402 143.454 8.42439 143.454 8.23823C143.407 8.19169 143.265 8.05207 142.935 8.05207Z" fill="#231F20"/>
<path d="M158.837 20.5715C158.554 20.5715 158.507 20.8508 158.46 21.0369C158.413 21.4092 158.129 22.3401 157.752 22.7589C156.903 23.6432 155.628 23.7828 154.307 23.7828C150.768 23.7828 147.087 20.8508 147.087 15.964C147.087 14.1023 147.323 12.008 148.88 10.3791C149.871 9.35516 151.381 8.84321 153.458 8.84321C155.298 8.84321 156.808 9.44824 157.422 10.0533C157.894 10.4721 158.224 11.3099 158.224 12.1476C158.224 12.3803 158.224 12.7992 158.554 12.7992C158.885 12.7992 158.885 12.4269 158.932 12.1942C158.932 12.0545 158.932 11.7753 158.932 11.403C158.932 10.9375 158.932 10.3325 158.979 9.91365C159.026 9.44824 159.026 9.169 159.073 8.98283C159.073 8.84321 159.12 8.75013 159.12 8.70359C159.12 8.47088 158.979 8.33126 158.696 8.28472C158.082 8.23818 157.422 8.09856 156.714 7.95893H156.667C155.44 7.72623 154.166 7.67969 153.647 7.67969C150.862 7.67969 148.786 8.47088 147.276 10.0533C145.53 11.8684 144.917 14.3816 144.917 16.1036C144.917 18.8495 145.766 21.0835 147.465 22.6659C149.164 24.2948 151.381 25.086 154.354 25.086C155.581 25.086 157.233 24.9464 158.129 24.574C158.554 24.3879 158.601 24.2948 158.743 23.8294C158.932 23.0847 159.215 21.1765 159.215 20.9904C159.168 20.6181 158.932 20.5715 158.837 20.5715Z" fill="#231F20"/>
<path d="M173.513 7.91208C173.466 7.91208 173.371 7.91208 173.277 7.95862C173.183 7.95862 173.041 8.00516 172.9 8.05171C172.569 8.14479 172.05 8.14479 171.484 8.14479H163.839C163.603 8.14479 162.801 8.09825 162.235 8.05171C161.905 8.00516 161.716 7.95862 161.574 7.86554C161.48 7.819 161.386 7.77246 161.291 7.77246C161.102 7.77246 161.008 8.05171 160.914 8.33095C160.914 8.33095 160.442 10.3787 160.442 10.658C160.442 10.9372 160.583 11.0303 160.725 11.0303C160.961 11.0303 161.055 10.7976 161.102 10.7045C161.15 10.5649 161.197 10.4253 161.433 10.053C161.716 9.58756 162.141 9.44793 163.367 9.44793L166.199 9.40139V18.4303C166.199 20.4781 166.199 22.2467 166.104 23.131C166.01 23.7825 165.916 24.1083 165.633 24.2014C165.397 24.2479 165.208 24.2945 165.066 24.2945C164.83 24.2945 164.736 24.4341 164.736 24.6203C164.736 24.853 164.925 24.9926 165.255 24.9926C165.68 24.9926 166.482 24.946 166.907 24.946C167.095 24.946 167.19 24.946 167.237 24.946C167.237 24.946 167.331 24.946 167.473 24.946C167.945 24.946 168.889 24.9926 169.738 24.9926C170.21 24.9926 170.257 24.7599 170.257 24.6203C170.257 24.4806 170.163 24.2945 169.927 24.2945C169.738 24.2945 169.313 24.2479 169.03 24.2014C168.558 24.1549 168.464 23.7825 168.369 23.1775C168.275 22.2932 168.275 20.5247 168.275 18.4769V9.35485L170.682 9.40139C172.664 9.44793 172.994 9.95988 173.041 10.4253V10.658C173.041 10.8907 173.088 11.1699 173.371 11.1699C173.419 11.1699 173.702 11.1699 173.702 10.7045C173.702 10.6115 173.702 10.3322 173.702 10.0064C173.702 9.44793 173.749 8.70328 173.749 8.28441C173.796 8.19133 173.796 7.91208 173.513 7.91208Z" fill="#231F20"/>
</g>
<defs>
<clipPath id="clip0_1934_4194">
<rect width="188" height="37" fill="white"/>
</clipPath>
</defs>
</svg>
