<svg width="917" height="813" viewBox="0 0 917 813" fill="none" xmlns="http://www.w3.org/2000/svg">
<path fill-rule="evenodd" clip-rule="evenodd" d="M334.337 55.123C482.02 32.2582 667.868 -38.2165 780.303 27.0241C903.626 98.5823 780.39 236.816 824.299 339.425C853.641 407.992 928.244 452.388 915.5 523C902.44 595.363 854.059 633.847 763.203 677.943C695.946 710.586 612.135 719.783 534.775 741.477C466.701 760.566 407.178 788.676 334.337 798.208C249.855 809.263 158.63 823.671 80.0636 800.979C0.0946045 777.882 -25.7633 714.741 -89.045 675.922C-181.588 619.154 -337.49 597.65 -378.082 519.938C-417.902 443.706 -359.119 357.126 -290.832 289.611C-214.565 197.948 -108.475 188.071 -2.04068 148.15C105.137 107.95 213.521 73.8282 334.337 55.123Z" fill="#F4F7F3"/>
</svg>
