<svg width="15" height="15" viewBox="0 0 15 15" fill="none" xmlns="http://www.w3.org/2000/svg">
<path d="M7.49375 1.25C4.04375 1.25 1.25 4.05 1.25 7.5C1.25 10.95 4.04375 13.75 7.49375 13.75C10.95 13.75 13.75 10.95 13.75 7.5C13.75 4.05 10.95 1.25 7.49375 1.25ZM11.825 5H9.98125C9.78125 4.21875 9.49375 3.46875 9.11875 2.775C10.2688 3.16875 11.225 3.96875 11.825 5ZM7.5 2.525C8.01875 3.275 8.425 4.10625 8.69375 5H6.30625C6.575 4.10625 6.98125 3.275 7.5 2.525ZM2.6625 8.75C2.5625 8.35 2.5 7.93125 2.5 7.5C2.5 7.06875 2.5625 6.65 2.6625 6.25H4.775C4.725 6.6625 4.6875 7.075 4.6875 7.5C4.6875 7.925 4.725 8.3375 4.775 8.75H2.6625ZM3.175 10H5.01875C5.21875 10.7812 5.50625 11.5312 5.88125 12.225C4.73125 11.8312 3.775 11.0375 3.175 10ZM5.01875 5H3.175C3.775 3.9625 4.73125 3.16875 5.88125 2.775C5.50625 3.46875 5.21875 4.21875 5.01875 5ZM7.5 12.475C6.98125 11.725 6.575 10.8938 6.30625 10H8.69375C8.425 10.8938 8.01875 11.725 7.5 12.475ZM8.9625 8.75H6.0375C5.98125 8.3375 5.9375 7.925 5.9375 7.5C5.9375 7.075 5.98125 6.65625 6.0375 6.25H8.9625C9.01875 6.65625 9.0625 7.075 9.0625 7.5C9.0625 7.925 9.01875 8.3375 8.9625 8.75ZM9.11875 12.225C9.49375 11.5312 9.78125 10.7812 9.98125 10H11.825C11.225 11.0312 10.2688 11.8312 9.11875 12.225ZM10.225 8.75C10.275 8.3375 10.3125 7.925 10.3125 7.5C10.3125 7.075 10.275 6.6625 10.225 6.25H12.3375C12.4375 6.65 12.5 7.06875 12.5 7.5C12.5 7.93125 12.4375 8.35 12.3375 8.75H10.225Z" fill="white"/>
</svg>
